<?xml version="1.0" encoding="UTF-8" standalone="no"?>
<!DOCTYPE svg PUBLIC "-//W3C//DTD SVG 1.1//EN" "http://www.w3.org/Graphics/SVG/1.1/DTD/svg11.dtd">
<svg width="100%" height="100%" viewBox="0 0 2000 800" version="1.1" xmlns="http://www.w3.org/2000/svg" xmlns:xlink="http://www.w3.org/1999/xlink" xml:space="preserve" xmlns:serif="http://www.serif.com/" style="fill-rule:evenodd;clip-rule:evenodd;stroke-linecap:round;stroke-linejoin:round;stroke-miterlimit:1.5;">
    <g id="Artboard1">
        <rect id="Artboard11" serif:id="Artboard1" x="0" y="0" width="2000" height="800" style="fill:none;"/>
        <g id="Artboard12" serif:id="Artboard1">
            <g id="Full-form---Nav" serif:id="Full form - Nav">
                <rect id="Dark-mode" serif:id="Dark mode" x="97.2" y="222.1" width="3.9" height="37" style="fill:#fff;fill-rule:nonzero;"/>
                <path d="M126.6,231c2.3,0 4.2,0.4 5.9,1.3c1.7,0.9 3,2.2 4,3.9c1,1.8 1.5,4 1.5,6.7l0,16.1l-3.8,0l0,-15.7c0,-2.9 -0.7,-5.1 -2.2,-6.6c-1.5,-1.5 -3.5,-2.2 -6.2,-2.2c-2,0 -3.7,0.4 -5.2,1.2c-1.5,0.8 -2.6,1.9 -3.4,3.4c-0.8,1.5 -1.2,3.3 -1.2,5.4l0,14.6l-3.8,0l0,-27.7l3.6,0l0,7.6l-0.6,-1.4c0.9,-2 2.3,-3.6 4.2,-4.7c1.9,-1.1 4.2,-1.7 6.9,-1.7Z" style="fill:#fff;fill-rule:nonzero;"/>
                <path d="M156.9,259.3c-2.6,0 -4.6,-0.7 -6,-2.1c-1.4,-1.4 -2.1,-3.4 -2.1,-6l0,-26.1l3.8,0l0,25.8c0,1.6 0.4,2.9 1.2,3.8c0.8,0.9 2,1.3 3.6,1.3c1.7,0 3,-0.5 4.1,-1.4l1.3,2.7c-0.7,0.7 -1.6,1.2 -2.7,1.5c-1,0.3 -2.1,0.5 -3.2,0.5Zm-13.1,-24.9l0,-3.1l17.2,0l0,3.1l-17.2,0Z" style="fill:#fff;fill-rule:nonzero;"/>
                <path d="M180.4,259.3c-2.9,0 -5.4,-0.6 -7.6,-1.8c-2.2,-1.2 -3.9,-2.9 -5.1,-5c-1.2,-2.1 -1.8,-4.6 -1.8,-7.3c0,-2.7 0.6,-5.2 1.8,-7.3c1.2,-2.1 2.8,-3.8 4.9,-5c2.1,-1.2 4.4,-1.8 6.9,-1.8c2.6,0 4.9,0.6 6.9,1.8c2,1.2 3.6,2.8 4.8,5c1.2,2.1 1.7,4.6 1.7,7.4c0,0.2 -0.1,1 -0.1,1.2l-24.2,0l0,-2.8l22.1,0l-1.5,1.1c0,-2 -0.4,-3.8 -1.3,-5.4c-0.9,-1.6 -2,-2.8 -3.5,-3.7c-1.5,-0.9 -3.2,-1.3 -5.1,-1.3c-1.9,0 -3.6,0.4 -5.1,1.3c-1.5,0.9 -2.7,2.1 -3.5,3.7c-0.8,1.6 -1.3,3.4 -1.3,5.4l0,0.6c0,2.1 0.5,4 1.4,5.6c0.9,1.6 2.2,2.9 3.9,3.8c1.7,0.9 3.6,1.3 5.7,1.3c1.7,0 3.3,-0.3 4.7,-0.9c1.5,-0.6 2.7,-1.5 3.8,-2.7l2.1,2.4c-1.2,1.5 -2.8,2.6 -4.6,3.4c-1.8,0.8 -3.9,1.2 -6.1,1.2Z" style="fill:#fff;fill-rule:nonzero;"/>
                <path d="M200.5,259l0,-27.7l3.6,0l0,7.6l-0.4,-1.3c0.8,-2.1 2.1,-3.7 3.9,-4.8c1.8,-1.1 4.1,-1.7 6.8,-1.7l0,3.6c-0.1,0 -0.7,-0.1 -0.8,-0.1c-2.9,0 -5.2,0.9 -6.9,2.7c-1.7,1.8 -2.5,4.3 -2.5,7.6l0,14.2l-3.8,0Z" style="fill:#fff;fill-rule:nonzero;"/>
                <path d="M235.4,231c2.3,0 4.2,0.4 5.9,1.3c1.7,0.9 3,2.2 4,3.9c1,1.8 1.5,4 1.5,6.7l0,16.1l-3.8,0l0,-15.7c0,-2.9 -0.7,-5.1 -2.2,-6.6c-1.5,-1.5 -3.5,-2.2 -6.2,-2.2c-2,0 -3.7,0.4 -5.2,1.2c-1.5,0.8 -2.6,1.9 -3.4,3.4c-0.8,1.5 -1.2,3.3 -1.2,5.4l0,14.6l-3.8,0l0,-27.7l3.6,0l0,7.6l-0.6,-1.4c0.9,-2 2.3,-3.6 4.2,-4.7c1.9,-1.1 4.2,-1.7 6.9,-1.7Z" style="fill:#fff;fill-rule:nonzero;"/>
                <path d="M274.4,259l0,-6.1l-0.2,-1l0,-10.3c0,-2.4 -0.7,-4.2 -2,-5.4c-1.3,-1.3 -3.3,-1.9 -5.9,-1.9c-1.8,0 -3.5,0.3 -5.1,0.9c-1.6,0.6 -3,1.4 -4.1,2.4l-1.7,-2.8c1.4,-1.2 3.1,-2.1 5.1,-2.8c2,-0.7 4.1,-1 6.2,-1c3.6,0 6.4,0.9 8.3,2.7c2,1.8 2.9,4.5 2.9,8.1l0,17.2l-3.6,0Zm-9.6,0.3c-2.1,0 -3.9,-0.3 -5.4,-1c-1.5,-0.7 -2.7,-1.6 -3.5,-2.9c-0.8,-1.2 -1.2,-2.6 -1.2,-4.2c0,-1.4 0.3,-2.8 1,-3.9c0.7,-1.2 1.8,-2.1 3.4,-2.9c1.6,-0.7 3.7,-1.1 6.3,-1.1l9.6,0l0,2.8l-9.5,0c-2.7,0 -4.5,0.5 -5.6,1.4c-1,1 -1.6,2.1 -1.6,3.5c0,1.6 0.6,2.9 1.8,3.8c1.2,1 3,1.4 5.2,1.4c2.1,0 3.9,-0.5 5.5,-1.5c1.5,-1 2.7,-2.4 3.4,-4.2l0.8,2.6c-0.7,1.8 -1.9,3.3 -3.7,4.4c-1.7,1.1 -3.9,1.6 -6.6,1.6Z" style="fill:#fff;fill-rule:nonzero;"/>
                <path d="M296.9,259.3c-2.6,0 -4.6,-0.7 -6,-2.1c-1.4,-1.4 -2.1,-3.4 -2.1,-6l0,-26.1l3.8,0l0,25.8c0,1.6 0.4,2.9 1.2,3.8c0.8,0.9 2,1.3 3.6,1.3c1.7,0 3,-0.5 4.1,-1.4l1.3,2.7c-0.7,0.7 -1.6,1.2 -2.7,1.5c-1,0.3 -2.1,0.5 -3.2,0.5Zm-13.1,-24.9l0,-3.1l17.2,0l0,3.1l-17.2,0Z" style="fill:#fff;fill-rule:nonzero;"/>
                <path d="M309.6,259l0,-27.7l3.8,0l0,27.7l-3.8,0Zm1.9,-33.9c-0.8,0 -1.4,-0.3 -2,-0.8c-0.5,-0.5 -0.8,-1.2 -0.8,-1.9c0,-0.7 0.3,-1.4 0.8,-1.9c0.5,-0.5 1.2,-0.8 2,-0.8c0.8,0 1.4,0.2 2,0.7c0.5,0.5 0.8,1.1 0.8,1.8c0,0.8 -0.3,1.4 -0.8,2c-0.5,0.5 -1.2,0.8 -2,0.8Z" style="fill:#fff;fill-rule:nonzero;"/>
                <path d="M335.2,259.3c-2.7,0 -5.1,-0.6 -7.2,-1.8c-2.1,-1.2 -3.8,-2.9 -5,-5c-1.2,-2.1 -1.8,-4.6 -1.8,-7.3c0,-2.8 0.6,-5.2 1.8,-7.3c1.2,-2.1 2.9,-3.8 5,-5c2.1,-1.2 4.5,-1.8 7.2,-1.8c2.7,0 5.2,0.6 7.3,1.8c2.1,1.2 3.8,2.9 5,5c1.2,2.1 1.8,4.6 1.8,7.3c0,2.7 -0.6,5.2 -1.8,7.3c-1.2,2.1 -2.9,3.8 -5,5c-2.1,1.2 -4.6,1.8 -7.3,1.8Zm0,-3.3c2,0 3.8,-0.4 5.3,-1.3c1.6,-0.9 2.8,-2.2 3.7,-3.8c0.9,-1.6 1.3,-3.5 1.3,-5.7c0,-2.2 -0.4,-4.1 -1.3,-5.7c-0.9,-1.6 -2.1,-2.9 -3.7,-3.8c-1.6,-0.9 -3.3,-1.3 -5.3,-1.3c-2,0 -3.7,0.4 -5.3,1.3c-1.6,0.9 -2.8,2.2 -3.7,3.8c-0.9,1.6 -1.4,3.5 -1.4,5.7c0,2.1 0.5,4 1.4,5.7c0.9,1.6 2.1,2.9 3.7,3.8c1.6,0.9 3.3,1.3 5.2,1.3Z" style="fill:#fff;fill-rule:nonzero;"/>
                <path d="M371.1,231c2.3,0 4.2,0.4 5.9,1.3c1.7,0.9 3,2.2 4,3.9c1,1.8 1.5,4 1.5,6.7l0,16.1l-3.8,0l0,-15.7c0,-2.9 -0.7,-5.1 -2.2,-6.6c-1.5,-1.5 -3.5,-2.2 -6.2,-2.2c-2,0 -3.7,0.4 -5.2,1.2c-1.5,0.8 -2.6,1.9 -3.4,3.4c-0.8,1.5 -1.2,3.3 -1.2,5.4l0,14.6l-3.8,0l0,-27.7l3.6,0l0,7.6l-0.6,-1.4c0.9,-2 2.3,-3.6 4.2,-4.7c1.9,-1.1 4.2,-1.7 6.9,-1.7Z" style="fill:#fff;fill-rule:nonzero;"/>
                <path d="M410.1,259l0,-6.1l-0.2,-1l0,-10.3c0,-2.4 -0.7,-4.2 -2,-5.4c-1.3,-1.3 -3.3,-1.9 -5.9,-1.9c-1.8,0 -3.5,0.3 -5.1,0.9c-1.6,0.6 -3,1.4 -4.1,2.4l-1.7,-2.8c1.4,-1.2 3.1,-2.1 5.1,-2.8c2,-0.7 4.1,-1 6.2,-1c3.6,0 6.4,0.9 8.3,2.7c2,1.8 2.9,4.5 2.9,8.1l0,17.2l-3.6,0Zm-9.6,0.3c-2.1,0 -3.9,-0.3 -5.4,-1c-1.5,-0.7 -2.7,-1.6 -3.5,-2.9c-0.8,-1.2 -1.2,-2.6 -1.2,-4.2c0,-1.4 0.3,-2.8 1,-3.9c0.7,-1.2 1.8,-2.1 3.4,-2.9c1.6,-0.7 3.7,-1.1 6.3,-1.1l9.6,0l0,2.8l-9.5,0c-2.7,0 -4.5,0.5 -5.6,1.4c-1,1 -1.6,2.1 -1.6,3.5c0,1.6 0.6,2.9 1.8,3.8c1.2,1 3,1.4 5.2,1.4c2.1,0 3.9,-0.5 5.5,-1.5c1.5,-1 2.7,-2.4 3.4,-4.2l0.8,2.6c-0.7,1.8 -1.9,3.3 -3.7,4.4c-1.7,1.1 -3.9,1.6 -6.6,1.6Z" style="fill:#fff;fill-rule:nonzero;"/>
                <rect x="423.9" y="219.8" width="3.8" height="39.2" style="fill:#fff;fill-rule:nonzero;"/>
                <path d="M468.8,259.4c-2.8,0 -5.4,-0.5 -7.7,-1.4c-2.4,-0.9 -4.4,-2.2 -6.1,-3.9c-1.7,-1.7 -3.1,-3.7 -4,-6c-1,-2.3 -1.5,-4.8 -1.5,-7.5c0,-2.7 0.5,-5.2 1.5,-7.5c1,-2.3 2.3,-4.3 4.1,-6c1.7,-1.7 3.8,-3 6.2,-3.9c2.4,-0.9 4.9,-1.4 7.7,-1.4c2.7,0 5.2,0.4 7.6,1.3c2.4,0.9 4.4,2.2 6,4l-2.5,2.5c-1.5,-1.6 -3.2,-2.7 -5,-3.4c-1.8,-0.7 -3.8,-1 -5.9,-1c-2.2,0 -4.3,0.4 -6.2,1.1c-1.9,0.8 -3.6,1.8 -5,3.2c-1.4,1.4 -2.5,3 -3.3,4.9c-0.8,1.8 -1.2,3.9 -1.2,6.1c0,2.2 0.4,4.3 1.2,6.1c0.8,1.8 1.9,3.5 3.3,4.9c1.4,1.4 3.1,2.5 5,3.2c1.9,0.8 4,1.1 6.2,1.1c2.1,0 4.1,-0.4 5.9,-1.1c1.8,-0.7 3.5,-1.8 5,-3.4l2.5,2.5c-1.6,1.8 -3.6,3.2 -6,4.1c-2.4,0.9 -4.9,1.4 -7.6,1.4Z" style="fill:#fff;fill-rule:nonzero;"/>
                <path d="M500,259.3c-2.7,0 -5.1,-0.6 -7.2,-1.8c-2.1,-1.2 -3.8,-2.9 -5,-5c-1.2,-2.1 -1.8,-4.6 -1.8,-7.3c0,-2.8 0.6,-5.2 1.8,-7.3c1.2,-2.1 2.9,-3.8 5,-5c2.1,-1.2 4.5,-1.8 7.2,-1.8c2.7,0 5.2,0.6 7.3,1.8c2.1,1.2 3.8,2.9 5,5c1.2,2.1 1.8,4.6 1.8,7.3c0,2.7 -0.6,5.2 -1.8,7.3c-1.2,2.1 -2.9,3.8 -5,5c-2.1,1.2 -4.6,1.8 -7.3,1.8Zm0,-3.3c2,0 3.8,-0.4 5.3,-1.3c1.6,-0.9 2.8,-2.2 3.7,-3.8c0.9,-1.6 1.3,-3.5 1.3,-5.7c0,-2.2 -0.4,-4.1 -1.3,-5.7c-0.9,-1.6 -2.1,-2.9 -3.7,-3.8c-1.6,-0.9 -3.3,-1.3 -5.3,-1.3c-2,0 -3.7,0.4 -5.3,1.3c-1.6,0.9 -2.8,2.2 -3.7,3.8c-0.9,1.6 -1.4,3.5 -1.4,5.7c0,2.1 0.5,4 1.4,5.7c0.9,1.6 2.1,2.9 3.7,3.8c1.6,0.9 3.3,1.3 5.2,1.3Z" style="fill:#fff;fill-rule:nonzero;"/>
                <path d="M536,231c2.3,0 4.2,0.4 5.9,1.3c1.7,0.9 3,2.2 4,3.9c1,1.8 1.5,4 1.5,6.7l0,16.1l-3.8,0l0,-15.7c0,-2.9 -0.7,-5.1 -2.2,-6.6c-1.5,-1.5 -3.5,-2.2 -6.2,-2.2c-2,0 -3.7,0.4 -5.2,1.2c-1.5,0.8 -2.6,1.9 -3.4,3.4c-0.8,1.5 -1.2,3.3 -1.2,5.4l0,14.6l-3.8,0l0,-27.7l3.6,0l0,7.6l-0.6,-1.4c0.9,-2 2.3,-3.6 4.2,-4.7c1.9,-1.1 4.2,-1.7 6.9,-1.7Z" style="fill:#fff;fill-rule:nonzero;"/>
                <path d="M558.2,259l0,-31.2c0,-2.5 0.7,-4.5 2.2,-6c1.4,-1.5 3.5,-2.3 6.2,-2.3c1.1,0 2.1,0.1 3.1,0.4c1,0.3 1.8,0.7 2.5,1.3l-1.3,2.8c-0.5,-0.5 -1.1,-0.8 -1.8,-1c-0.7,-0.2 -1.5,-0.3 -2.3,-0.3c-1.6,0 -2.8,0.4 -3.6,1.3c-0.8,0.9 -1.3,2.2 -1.3,3.9l0,4.2l0.1,1.7l0,25.1l-3.8,0Zm-5,-24.6l0,-3.1l17.2,0l0,3.1l-17.2,0Z" style="fill:#fff;fill-rule:nonzero;"/>
                <path d="M586.8,259.3c-2.9,0 -5.4,-0.6 -7.6,-1.8c-2.2,-1.2 -3.9,-2.9 -5.1,-5c-1.2,-2.1 -1.8,-4.6 -1.8,-7.3c0,-2.7 0.6,-5.2 1.8,-7.3c1.2,-2.1 2.8,-3.8 4.9,-5c2.1,-1.2 4.4,-1.8 6.9,-1.8c2.6,0 4.9,0.6 6.9,1.8c2,1.2 3.6,2.8 4.8,5c1.2,2.1 1.7,4.6 1.7,7.4c0,0.2 -0.1,1 -0.1,1.2l-24.2,0l0,-2.8l22.1,0l-1.5,1.1c0,-2 -0.4,-3.8 -1.3,-5.4c-0.9,-1.6 -2,-2.8 -3.5,-3.7c-1.5,-0.9 -3.2,-1.3 -5.1,-1.3c-1.9,0 -3.6,0.4 -5.1,1.3c-1.5,0.9 -2.7,2.1 -3.5,3.7c-0.8,1.6 -1.3,3.4 -1.3,5.4l0,0.6c0,2.1 0.5,4 1.4,5.6c0.9,1.6 2.2,2.9 3.9,3.8c1.7,0.9 3.6,1.3 5.7,1.3c1.7,0 3.3,-0.3 4.7,-0.9c1.5,-0.6 2.7,-1.5 3.8,-2.7l2.1,2.4c-1.2,1.5 -2.8,2.6 -4.6,3.4c-1.8,0.8 -3.9,1.2 -6.1,1.2Z" style="fill:#fff;fill-rule:nonzero;"/>
                <path d="M606.9,259l0,-27.7l3.6,0l0,7.6l-0.4,-1.3c0.8,-2.1 2.1,-3.7 3.9,-4.8c1.8,-1.1 4.1,-1.7 6.8,-1.7l0,3.6c-0.1,0 -0.7,-0.1 -0.8,-0.1c-2.9,0 -5.2,0.9 -6.9,2.7c-1.7,1.8 -2.5,4.3 -2.5,7.6l0,14.2l-3.8,0Z" style="fill:#fff;fill-rule:nonzero;"/>
                <path d="M639.2,259.3c-2.9,0 -5.4,-0.6 -7.6,-1.8c-2.2,-1.2 -3.9,-2.9 -5.1,-5c-1.2,-2.1 -1.8,-4.6 -1.8,-7.3c0,-2.7 0.6,-5.2 1.8,-7.3c1.2,-2.1 2.8,-3.8 4.9,-5c2.1,-1.2 4.4,-1.8 6.9,-1.8c2.6,0 4.9,0.6 6.9,1.8c2,1.2 3.6,2.8 4.8,5c1.2,2.1 1.7,4.6 1.7,7.4c0,0.2 -0.1,1 -0.1,1.2l-24.2,0l0,-2.8l22.1,0l-1.5,1.1c0,-2 -0.4,-3.8 -1.3,-5.4c-0.9,-1.6 -2,-2.8 -3.5,-3.7c-1.5,-0.9 -3.2,-1.3 -5.1,-1.3c-1.9,0 -3.6,0.4 -5.1,1.3c-1.5,0.9 -2.7,2.1 -3.5,3.7c-0.8,1.6 -1.3,3.4 -1.3,5.4l0,0.6c0,2.1 0.5,4 1.4,5.6c0.9,1.6 2.2,2.9 3.9,3.8c1.7,0.9 3.6,1.3 5.7,1.3c1.7,0 3.3,-0.3 4.7,-0.9c1.5,-0.6 2.7,-1.5 3.8,-2.7l2.1,2.4c-1.2,1.5 -2.8,2.6 -4.6,3.4c-1.8,0.8 -3.9,1.2 -6.1,1.2Z" style="fill:#fff;fill-rule:nonzero;"/>
                <path d="M673.5,231c2.3,0 4.2,0.4 5.9,1.3c1.7,0.9 3,2.2 4,3.9c1,1.8 1.5,4 1.5,6.7l0,16.1l-3.8,0l0,-15.7c0,-2.9 -0.7,-5.1 -2.2,-6.6c-1.5,-1.5 -3.5,-2.2 -6.2,-2.2c-2,0 -3.7,0.4 -5.2,1.2c-1.5,0.8 -2.6,1.9 -3.4,3.4c-0.8,1.5 -1.2,3.3 -1.2,5.4l0,14.6l-3.8,0l0,-27.7l3.6,0l0,7.6l-0.6,-1.4c0.9,-2 2.3,-3.6 4.2,-4.7c1.9,-1.1 4.2,-1.7 6.9,-1.7Z" style="fill:#fff;fill-rule:nonzero;"/>
                <path d="M706.6,259.3c-2.7,0 -5.2,-0.6 -7.4,-1.8c-2.2,-1.2 -3.9,-2.9 -5.1,-5c-1.2,-2.1 -1.8,-4.6 -1.8,-7.3c0,-2.8 0.6,-5.2 1.8,-7.3c1.2,-2.1 2.9,-3.8 5.1,-5c2.2,-1.2 4.6,-1.8 7.4,-1.8c2.4,0 4.5,0.5 6.4,1.4c1.9,0.9 3.4,2.3 4.5,4.1l-2.8,1.9c-1,-1.4 -2.1,-2.4 -3.5,-3.1c-1.4,-0.7 -2.9,-1 -4.6,-1c-2,0 -3.8,0.4 -5.3,1.3c-1.6,0.9 -2.8,2.2 -3.8,3.8c-0.9,1.6 -1.4,3.5 -1.4,5.7c0,2.2 0.5,4.1 1.4,5.7c0.9,1.6 2.2,2.9 3.8,3.8c1.6,0.9 3.4,1.3 5.3,1.3c1.7,0 3.2,-0.3 4.6,-1c1.4,-0.7 2.6,-1.7 3.5,-3.1l2.8,1.9c-1.1,1.8 -2.6,3.2 -4.5,4.1c-1.9,0.9 -4,1.4 -6.4,1.4Z" style="fill:#fff;fill-rule:nonzero;"/>
                <path d="M736.1,259.3c-2.9,0 -5.4,-0.6 -7.6,-1.8c-2.2,-1.2 -3.9,-2.9 -5.1,-5c-1.2,-2.1 -1.8,-4.6 -1.8,-7.3c0,-2.7 0.6,-5.2 1.8,-7.3c1.2,-2.1 2.8,-3.8 4.9,-5c2.1,-1.2 4.4,-1.8 6.9,-1.8c2.6,0 4.9,0.6 6.9,1.8c2,1.2 3.6,2.8 4.8,5c1.2,2.1 1.7,4.6 1.7,7.4c0,0.2 -0.1,1 -0.1,1.2l-24.2,0l0,-2.8l22.1,0l-1.5,1.1c0,-2 -0.4,-3.8 -1.3,-5.4c-0.9,-1.6 -2,-2.8 -3.5,-3.7c-1.5,-0.9 -3.2,-1.3 -5.1,-1.3c-1.9,0 -3.6,0.4 -5.1,1.3c-1.5,0.9 -2.7,2.1 -3.5,3.7c-0.8,1.6 -1.3,3.4 -1.3,5.4l0,0.6c0,2.1 0.5,4 1.4,5.6c0.9,1.6 2.2,2.9 3.9,3.8c1.7,0.9 3.6,1.3 5.7,1.3c1.7,0 3.3,-0.3 4.7,-0.9c1.5,-0.6 2.7,-1.5 3.8,-2.7l2.1,2.4c-1.2,1.5 -2.8,2.6 -4.6,3.4c-1.8,0.8 -3.9,1.2 -6.1,1.2Z" style="fill:#fff;fill-rule:nonzero;"/>
                <path d="M781.4,259.3c-2.7,0 -5.1,-0.6 -7.2,-1.8c-2.1,-1.2 -3.8,-2.9 -5,-5c-1.2,-2.1 -1.8,-4.6 -1.8,-7.3c0,-2.8 0.6,-5.2 1.8,-7.3c1.2,-2.1 2.9,-3.8 5,-5c2.1,-1.2 4.5,-1.8 7.2,-1.8c2.7,0 5.2,0.6 7.3,1.8c2.1,1.2 3.8,2.9 5,5c1.2,2.1 1.8,4.6 1.8,7.3c0,2.7 -0.6,5.2 -1.8,7.3c-1.2,2.1 -2.9,3.8 -5,5c-2.1,1.2 -4.6,1.8 -7.3,1.8Zm0,-3.3c2,0 3.8,-0.4 5.3,-1.3c1.6,-0.9 2.8,-2.2 3.7,-3.8c0.9,-1.6 1.3,-3.5 1.3,-5.7c0,-2.2 -0.4,-4.1 -1.3,-5.7c-0.9,-1.6 -2.1,-2.9 -3.7,-3.8c-1.6,-0.9 -3.3,-1.3 -5.3,-1.3c-2,0 -3.7,0.4 -5.3,1.3c-1.6,0.9 -2.8,2.2 -3.7,3.8c-0.9,1.6 -1.4,3.5 -1.4,5.7c0,2.1 0.5,4 1.4,5.7c0.9,1.6 2.1,2.9 3.7,3.8c1.6,0.9 3.3,1.3 5.2,1.3Z" style="fill:#fff;fill-rule:nonzero;"/>
                <path d="M817.4,231c2.3,0 4.2,0.4 5.9,1.3c1.7,0.9 3,2.2 4,3.9c1,1.8 1.5,4 1.5,6.7l0,16.1l-3.8,0l0,-15.7c0,-2.9 -0.7,-5.1 -2.2,-6.6c-1.5,-1.5 -3.5,-2.2 -6.2,-2.2c-2,0 -3.7,0.4 -5.2,1.2c-1.5,0.8 -2.6,1.9 -3.4,3.4c-0.8,1.5 -1.2,3.3 -1.2,5.4l0,14.6l-3.8,0l0,-27.7l3.6,0l0,7.6l-0.6,-1.4c0.9,-2 2.3,-3.6 4.2,-4.7c1.9,-1.1 4.2,-1.7 6.9,-1.7Z" style="fill:#fff;fill-rule:nonzero;"/>
                <path d="M847.7,259l16.9,-37l3.9,0l16.9,37l-4.1,0l-15.5,-34.7l1.6,0l-15.5,34.7l-4.1,0Zm6.7,-9.9l1.2,-3.2l21.5,0l1.2,3.2l-23.8,0Z" style="fill:#fff;fill-rule:nonzero;"/>
                <path d="M901.5,259.3c-2.6,0 -5,-0.6 -7.1,-1.8c-2.1,-1.2 -3.7,-2.9 -4.9,-5c-1.2,-2.1 -1.8,-4.6 -1.8,-7.4c0,-2.8 0.6,-5.3 1.8,-7.4c1.2,-2.1 2.8,-3.8 4.9,-4.9c2.1,-1.2 4.5,-1.8 7.1,-1.8c2.4,0 4.6,0.5 6.5,1.6c1.9,1.1 3.5,2.7 4.6,4.8c1.1,2.1 1.7,4.7 1.7,7.7c0,3 -0.6,5.5 -1.7,7.7c-1.1,2.1 -2.7,3.7 -4.6,4.8c-1.9,1.1 -4.1,1.7 -6.6,1.7Zm0.3,-3.3c2,0 3.7,-0.4 5.3,-1.3c1.6,-0.9 2.8,-2.2 3.7,-3.8c0.9,-1.6 1.3,-3.5 1.3,-5.7c0,-2.2 -0.4,-4.1 -1.3,-5.7c-0.9,-1.6 -2.1,-2.9 -3.7,-3.8c-1.6,-0.9 -3.3,-1.3 -5.3,-1.3c-1.9,0 -3.7,0.4 -5.2,1.3c-1.6,0.9 -2.8,2.2 -3.7,3.8c-0.9,1.6 -1.4,3.5 -1.4,5.7c0,2.1 0.5,4 1.4,5.7c0.9,1.6 2.1,2.9 3.7,3.8c1.6,0.9 3.3,1.3 5.2,1.3Zm10.5,3.1l0,-8.3l0.4,-5.6l-0.5,-5.6l0,-19.7l3.8,0l0,39.2l-3.6,0Z" style="fill:#fff;fill-rule:nonzero;"/>
                <path d="M933.4,259l-12.3,-27.7l3.9,0l11.3,25.7l-1.8,0l11.5,-25.7l3.7,0l-12.4,27.7l-3.9,0Z" style="fill:#fff;fill-rule:nonzero;"/>
                <path d="M971.5,259l0,-6.1l-0.2,-1l0,-10.3c0,-2.4 -0.7,-4.2 -2,-5.4c-1.3,-1.3 -3.3,-1.9 -5.9,-1.9c-1.8,0 -3.5,0.3 -5.1,0.9c-1.6,0.6 -3,1.4 -4.1,2.4l-1.7,-2.8c1.4,-1.2 3.1,-2.1 5.1,-2.8c2,-0.7 4.1,-1 6.2,-1c3.6,0 6.4,0.9 8.3,2.7c2,1.8 2.9,4.5 2.9,8.1l0,17.2l-3.6,0Zm-9.6,0.3c-2.1,0 -3.9,-0.3 -5.4,-1c-1.5,-0.7 -2.7,-1.6 -3.5,-2.9c-0.8,-1.2 -1.2,-2.6 -1.2,-4.2c0,-1.4 0.3,-2.8 1,-3.9c0.7,-1.2 1.8,-2.1 3.4,-2.9c1.6,-0.7 3.7,-1.1 6.3,-1.1l9.6,0l0,2.8l-9.5,0c-2.7,0 -4.5,0.5 -5.6,1.4c-1,1 -1.6,2.1 -1.6,3.5c0,1.6 0.6,2.9 1.8,3.8c1.2,1 3,1.4 5.2,1.4c2.1,0 3.9,-0.5 5.5,-1.5c1.5,-1 2.7,-2.4 3.4,-4.2l0.8,2.6c-0.7,1.8 -1.9,3.3 -3.7,4.4c-1.7,1.1 -3.9,1.6 -6.6,1.6Z" style="fill:#fff;fill-rule:nonzero;"/>
                <path d="M999.4,231c2.3,0 4.2,0.4 5.9,1.3c1.7,0.9 3,2.2 4,3.9c1,1.8 1.5,4 1.5,6.7l0,16.1l-3.8,0l0,-15.7c0,-2.9 -0.7,-5.1 -2.2,-6.6c-1.5,-1.5 -3.5,-2.2 -6.2,-2.2c-2,0 -3.7,0.4 -5.2,1.2c-1.5,0.8 -2.6,1.9 -3.4,3.4c-0.8,1.5 -1.2,3.3 -1.2,5.4l0,14.6l-3.8,0l0,-27.7l3.6,0l0,7.6l-0.6,-1.4c0.9,-2 2.3,-3.6 4.2,-4.7c1.9,-1.1 4.2,-1.7 6.9,-1.7Z" style="fill:#fff;fill-rule:nonzero;"/>
                <path d="M1032.5,259.3c-2.7,0 -5.2,-0.6 -7.4,-1.8c-2.2,-1.2 -3.9,-2.9 -5.1,-5c-1.2,-2.1 -1.8,-4.6 -1.8,-7.3c0,-2.8 0.6,-5.2 1.8,-7.3c1.2,-2.1 2.9,-3.8 5.1,-5c2.2,-1.2 4.6,-1.8 7.4,-1.8c2.4,0 4.5,0.5 6.4,1.4c1.9,0.9 3.4,2.3 4.5,4.1l-2.8,1.9c-1,-1.4 -2.1,-2.4 -3.5,-3.1c-1.4,-0.7 -2.9,-1 -4.6,-1c-2,0 -3.8,0.4 -5.3,1.3c-1.6,0.9 -2.8,2.2 -3.8,3.8c-0.9,1.6 -1.4,3.5 -1.4,5.7c0,2.2 0.5,4.1 1.4,5.7c0.9,1.6 2.2,2.9 3.8,3.8c1.6,0.9 3.4,1.3 5.3,1.3c1.7,0 3.2,-0.3 4.6,-1c1.4,-0.7 2.6,-1.7 3.5,-3.1l2.8,1.9c-1.1,1.8 -2.6,3.2 -4.5,4.1c-1.9,0.9 -4,1.4 -6.4,1.4Z" style="fill:#fff;fill-rule:nonzero;"/>
                <path d="M1062,259.3c-2.9,0 -5.4,-0.6 -7.6,-1.8c-2.2,-1.2 -3.9,-2.9 -5.1,-5c-1.2,-2.1 -1.8,-4.6 -1.8,-7.3c0,-2.7 0.6,-5.2 1.8,-7.3c1.2,-2.1 2.8,-3.8 4.9,-5c2.1,-1.2 4.4,-1.8 6.9,-1.8c2.6,0 4.9,0.6 6.9,1.8c2,1.2 3.6,2.8 4.8,5c1.2,2.1 1.7,4.6 1.7,7.4c0,0.2 -0.1,1 -0.1,1.2l-24.2,0l0,-2.8l22.1,0l-1.5,1.1c0,-2 -0.4,-3.8 -1.3,-5.4c-0.9,-1.6 -2,-2.8 -3.5,-3.7c-1.5,-0.9 -3.2,-1.3 -5.1,-1.3c-1.9,0 -3.6,0.4 -5.1,1.3c-1.5,0.9 -2.7,2.1 -3.5,3.7c-0.8,1.6 -1.3,3.4 -1.3,5.4l0,0.6c0,2.1 0.5,4 1.4,5.6c0.9,1.6 2.2,2.9 3.9,3.8c1.7,0.9 3.6,1.3 5.7,1.3c1.7,0 3.3,-0.3 4.7,-0.9c1.5,-0.6 2.7,-1.5 3.8,-2.7l2.1,2.4c-1.2,1.5 -2.8,2.6 -4.6,3.4c-1.8,0.8 -3.9,1.2 -6.1,1.2Z" style="fill:#fff;fill-rule:nonzero;"/>
                <path d="M1093.2,259.3c-2.6,0 -5,-0.6 -7.1,-1.8c-2.1,-1.2 -3.7,-2.9 -4.9,-5c-1.2,-2.1 -1.8,-4.6 -1.8,-7.4c0,-2.8 0.6,-5.3 1.8,-7.4c1.2,-2.1 2.8,-3.8 4.9,-4.9c2.1,-1.2 4.5,-1.8 7.1,-1.8c2.4,0 4.6,0.5 6.5,1.6c1.9,1.1 3.5,2.7 4.6,4.8c1.1,2.1 1.7,4.7 1.7,7.7c0,3 -0.6,5.5 -1.7,7.7c-1.1,2.1 -2.7,3.7 -4.6,4.8c-1.9,1.1 -4.1,1.7 -6.6,1.7Zm0.3,-3.3c2,0 3.7,-0.4 5.3,-1.3c1.6,-0.9 2.8,-2.2 3.7,-3.8c0.9,-1.6 1.3,-3.5 1.3,-5.7c0,-2.2 -0.4,-4.1 -1.3,-5.7c-0.9,-1.6 -2.1,-2.9 -3.7,-3.8c-1.6,-0.9 -3.3,-1.3 -5.3,-1.3c-1.9,0 -3.7,0.4 -5.2,1.3c-1.6,0.9 -2.8,2.2 -3.7,3.8c-0.9,1.6 -1.4,3.5 -1.4,5.7c0,2.1 0.5,4 1.4,5.7c0.9,1.6 2.1,2.9 3.7,3.8c1.6,0.9 3.3,1.3 5.2,1.3Zm10.5,3.1l0,-8.3l0.4,-5.6l-0.5,-5.6l0,-19.7l3.8,0l0,39.2l-3.6,0Z" style="fill:#fff;fill-rule:nonzero;"/>
                <path d="M1132.6,259l0,-37l3.2,0l16.9,28.9l-1.7,0l16.8,-28.9l3.2,0l0,37l-3.8,0l0,-31.1l0.9,0l-15.4,26.4l-1.8,0l-15.5,-26.4l1,0l0,31.1l-3.8,0Z" style="fill:#fff;fill-rule:nonzero;"/>
                <path d="M1199.7,259l0,-6.1l-0.2,-1l0,-10.3c0,-2.4 -0.7,-4.2 -2,-5.4c-1.3,-1.3 -3.3,-1.9 -5.9,-1.9c-1.8,0 -3.5,0.3 -5.1,0.9c-1.6,0.6 -3,1.4 -4.1,2.4l-1.7,-2.8c1.4,-1.2 3.1,-2.1 5.1,-2.8c2,-0.7 4.1,-1 6.2,-1c3.6,0 6.4,0.9 8.3,2.7c2,1.8 2.9,4.5 2.9,8.1l0,17.2l-3.6,0Zm-9.6,0.3c-2.1,0 -3.9,-0.3 -5.4,-1c-1.5,-0.7 -2.7,-1.6 -3.5,-2.9c-0.8,-1.2 -1.2,-2.6 -1.2,-4.2c0,-1.4 0.3,-2.8 1,-3.9c0.7,-1.2 1.8,-2.1 3.4,-2.9c1.6,-0.7 3.7,-1.1 6.3,-1.1l9.6,0l0,2.8l-9.5,0c-2.7,0 -4.5,0.5 -5.6,1.4c-1,1 -1.6,2.1 -1.6,3.5c0,1.6 0.6,2.9 1.8,3.8c1.2,1 3,1.4 5.2,1.4c2.1,0 3.9,-0.5 5.5,-1.5c1.5,-1 2.7,-2.4 3.4,-4.2l0.8,2.6c-0.7,1.8 -1.9,3.3 -3.7,4.4c-1.7,1.1 -3.9,1.6 -6.6,1.6Z" style="fill:#fff;fill-rule:nonzero;"/>
                <path d="M1225,259.3c-2.7,0 -5.2,-0.6 -7.4,-1.8c-2.2,-1.2 -3.9,-2.9 -5.1,-5c-1.2,-2.1 -1.8,-4.6 -1.8,-7.3c0,-2.8 0.6,-5.2 1.8,-7.3c1.2,-2.1 2.9,-3.8 5.1,-5c2.2,-1.2 4.6,-1.8 7.4,-1.8c2.4,0 4.5,0.5 6.4,1.4c1.9,0.9 3.4,2.3 4.5,4.1l-2.8,1.9c-1,-1.4 -2.1,-2.4 -3.5,-3.1c-1.4,-0.7 -2.9,-1 -4.6,-1c-2,0 -3.8,0.4 -5.3,1.3c-1.6,0.9 -2.8,2.2 -3.8,3.8c-0.9,1.6 -1.4,3.5 -1.4,5.7c0,2.2 0.5,4.1 1.4,5.7c0.9,1.6 2.2,2.9 3.8,3.8c1.6,0.9 3.4,1.3 5.3,1.3c1.7,0 3.2,-0.3 4.6,-1c1.4,-0.7 2.6,-1.7 3.5,-3.1l2.8,1.9c-1.1,1.8 -2.6,3.2 -4.5,4.1c-1.9,0.9 -4,1.4 -6.4,1.4Z" style="fill:#fff;fill-rule:nonzero;"/>
                <path d="M1257,231c2.3,0 4.2,0.4 5.9,1.3c1.7,0.9 3,2.2 4,3.9c1,1.8 1.5,4 1.5,6.7l0,16.1l-3.8,0l0,-15.7c0,-2.9 -0.7,-5.1 -2.2,-6.6c-1.5,-1.5 -3.5,-2.2 -6.2,-2.2c-2,0 -3.7,0.4 -5.2,1.2c-1.5,0.8 -2.6,1.9 -3.4,3.4c-0.8,1.5 -1.2,3.3 -1.2,5.4l0,14.6l-3.8,0l0,-39.2l3.8,0l0,19.1l-0.7,-1.4c0.9,-2 2.3,-3.6 4.2,-4.7c1.9,-1.1 4.2,-1.7 6.9,-1.7Z" style="fill:#fff;fill-rule:nonzero;"/>
                <path d="M1278.6,259l0,-27.7l3.8,0l0,27.7l-3.8,0Zm1.9,-33.9c-0.8,0 -1.4,-0.3 -2,-0.8c-0.5,-0.5 -0.8,-1.2 -0.8,-1.9c0,-0.7 0.3,-1.4 0.8,-1.9c0.5,-0.5 1.2,-0.8 2,-0.8c0.8,0 1.4,0.2 2,0.7c0.5,0.5 0.8,1.1 0.8,1.8c0,0.8 -0.3,1.4 -0.8,2c-0.5,0.5 -1.2,0.8 -2,0.8Z" style="fill:#fff;fill-rule:nonzero;"/>
                <path d="M1306.9,231c2.3,0 4.2,0.4 5.9,1.3c1.7,0.9 3,2.2 4,3.9c1,1.8 1.5,4 1.5,6.7l0,16.1l-3.8,0l0,-15.7c0,-2.9 -0.7,-5.1 -2.2,-6.6c-1.5,-1.5 -3.5,-2.2 -6.2,-2.2c-2,0 -3.7,0.4 -5.2,1.2c-1.5,0.8 -2.6,1.9 -3.4,3.4c-0.8,1.5 -1.2,3.3 -1.2,5.4l0,14.6l-3.8,0l0,-27.7l3.6,0l0,7.6l-0.6,-1.4c0.9,-2 2.3,-3.6 4.2,-4.7c1.9,-1.1 4.2,-1.7 6.9,-1.7Z" style="fill:#fff;fill-rule:nonzero;"/>
                <path d="M1340.3,259.3c-2.9,0 -5.4,-0.6 -7.6,-1.8c-2.2,-1.2 -3.9,-2.9 -5.1,-5c-1.2,-2.1 -1.8,-4.6 -1.8,-7.3c0,-2.7 0.6,-5.2 1.8,-7.3c1.2,-2.1 2.8,-3.8 4.9,-5c2.1,-1.2 4.4,-1.8 6.9,-1.8c2.6,0 4.9,0.6 6.9,1.8c2,1.2 3.6,2.8 4.8,5c1.2,2.1 1.7,4.6 1.7,7.4c0,0.2 -0.1,1 -0.1,1.2l-24.2,0l0,-2.8l22.1,0l-1.5,1.1c0,-2 -0.4,-3.8 -1.3,-5.4c-0.9,-1.6 -2,-2.8 -3.5,-3.7c-1.5,-0.9 -3.2,-1.3 -5.1,-1.3c-1.9,0 -3.6,0.4 -5.1,1.3c-1.5,0.9 -2.7,2.1 -3.5,3.7c-0.8,1.6 -1.3,3.4 -1.3,5.4l0,0.6c0,2.1 0.5,4 1.4,5.6c0.9,1.6 2.2,2.9 3.9,3.8c1.7,0.9 3.6,1.3 5.7,1.3c1.7,0 3.3,-0.3 4.7,-0.9c1.5,-0.6 2.7,-1.5 3.8,-2.7l2.1,2.4c-1.2,1.5 -2.8,2.6 -4.6,3.4c-1.8,0.8 -3.9,1.2 -6.1,1.2Z" style="fill:#fff;fill-rule:nonzero;"/>
                <rect x="1375" y="222.1" width="3.9" height="37" style="fill:#fff;fill-rule:nonzero;"/>
                <path d="M1404.4,231c2.3,0 4.2,0.4 5.9,1.3c1.7,0.9 3,2.2 4,3.9c1,1.8 1.5,4 1.5,6.7l0,16.1l-3.8,0l0,-15.7c0,-2.9 -0.7,-5.1 -2.2,-6.6c-1.5,-1.5 -3.5,-2.2 -6.2,-2.2c-2,0 -3.7,0.4 -5.2,1.2c-1.5,0.8 -2.6,1.9 -3.4,3.4c-0.8,1.5 -1.2,3.3 -1.2,5.4l0,14.6l-3.8,0l0,-27.7l3.6,0l0,7.6l-0.6,-1.4c0.9,-2 2.3,-3.6 4.2,-4.7c1.9,-1.1 4.2,-1.7 6.9,-1.7Z" style="fill:#fff;fill-rule:nonzero;"/>
                <path d="M1434.7,259.3c-2.6,0 -4.6,-0.7 -6,-2.1c-1.4,-1.4 -2.1,-3.4 -2.1,-6l0,-26.1l3.8,0l0,25.8c0,1.6 0.4,2.9 1.2,3.8c0.8,0.9 2,1.3 3.6,1.3c1.7,0 3,-0.5 4.1,-1.4l1.3,2.7c-0.7,0.7 -1.6,1.2 -2.7,1.5c-1,0.3 -2.1,0.5 -3.2,0.5Zm-13.1,-24.9l0,-3.1l17.2,0l0,3.1l-17.2,0Z" style="fill:#fff;fill-rule:nonzero;"/>
                <path d="M1458.2,259.3c-2.9,0 -5.4,-0.6 -7.6,-1.8c-2.2,-1.2 -3.9,-2.9 -5.1,-5c-1.2,-2.1 -1.8,-4.6 -1.8,-7.3c0,-2.7 0.6,-5.2 1.8,-7.3c1.2,-2.1 2.8,-3.8 4.9,-5c2.1,-1.2 4.4,-1.8 6.9,-1.8c2.6,0 4.9,0.6 6.9,1.8c2,1.2 3.6,2.8 4.8,5c1.2,2.1 1.7,4.6 1.7,7.4c0,0.2 -0.1,1 -0.1,1.2l-24.2,0l0,-2.8l22.1,0l-1.5,1.1c0,-2 -0.4,-3.8 -1.3,-5.4c-0.9,-1.6 -2,-2.8 -3.5,-3.7c-1.5,-0.9 -3.2,-1.3 -5.1,-1.3c-1.9,0 -3.6,0.4 -5.1,1.3c-1.5,0.9 -2.7,2.1 -3.5,3.7c-0.8,1.6 -1.3,3.4 -1.3,5.4l0,0.6c0,2.1 0.5,4 1.4,5.6c0.9,1.6 2.2,2.9 3.9,3.8c1.7,0.9 3.6,1.3 5.7,1.3c1.7,0 3.3,-0.3 4.7,-0.9c1.5,-0.6 2.7,-1.5 3.8,-2.7l2.1,2.4c-1.2,1.5 -2.8,2.6 -4.6,3.4c-1.8,0.8 -3.9,1.2 -6.1,1.2Z" style="fill:#fff;fill-rule:nonzero;"/>
                <rect x="1478.3" y="219.8" width="3.8" height="39.2" style="fill:#fff;fill-rule:nonzero;"/>
                <rect x="1492.5" y="219.8" width="3.8" height="39.2" style="fill:#fff;fill-rule:nonzero;"/>
                <path d="M1506.7,259l0,-27.7l3.8,0l0,27.7l-3.8,0Zm1.9,-33.9c-0.8,0 -1.4,-0.3 -2,-0.8c-0.5,-0.5 -0.8,-1.2 -0.8,-1.9c0,-0.7 0.3,-1.4 0.8,-1.9c0.5,-0.5 1.2,-0.8 2,-0.8c0.8,0 1.4,0.2 2,0.7c0.5,0.5 0.8,1.1 0.8,1.8c0,0.8 -0.3,1.4 -0.8,2c-0.5,0.5 -1.2,0.8 -2,0.8Z" style="fill:#fff;fill-rule:nonzero;"/>
                <path d="M1532.8,269.6c-2.5,0 -5,-0.4 -7.3,-1.1c-2.3,-0.7 -4.2,-1.8 -5.7,-3.2l1.9,-2.9c1.3,1.2 2.9,2.1 4.8,2.8c1.9,0.7 4,1 6.1,1c3.5,0 6.1,-0.8 7.8,-2.5c1.7,-1.6 2.5,-4.2 2.5,-7.6l0,-6.9l0.5,-4.8l-0.4,-4.8l0,-8.4l3.6,0l0,24.4c0,4.8 -1.2,8.3 -3.5,10.5c-2.3,2.2 -5.8,3.4 -10.4,3.4Zm-0.7,-11.6c-2.6,0 -5,-0.6 -7.1,-1.7c-2.1,-1.1 -3.8,-2.7 -5,-4.8c-1.2,-2 -1.8,-4.4 -1.8,-7c0,-2.6 0.6,-5 1.8,-7c1.2,-2 2.9,-3.6 5,-4.7c2.1,-1.1 4.5,-1.7 7.1,-1.7c2.5,0 4.7,0.5 6.7,1.5c2,1 3.5,2.5 4.7,4.5c1.2,2 1.7,4.5 1.7,7.3c0,2.9 -0.6,5.3 -1.7,7.3c-1.2,2 -2.7,3.5 -4.7,4.6c-2,1.1 -4.2,1.6 -6.7,1.6Zm0.4,-3.3c2,0 3.9,-0.4 5.4,-1.3c1.6,-0.9 2.8,-2.1 3.8,-3.6c0.9,-1.5 1.4,-3.3 1.4,-5.3c0,-2 -0.5,-3.8 -1.4,-5.3c-0.9,-1.5 -2.2,-2.7 -3.8,-3.6c-1.6,-0.9 -3.4,-1.3 -5.4,-1.3c-2,0 -3.8,0.4 -5.4,1.3c-1.6,0.9 -2.9,2.1 -3.8,3.6c-0.9,1.5 -1.3,3.3 -1.3,5.3c0,2 0.4,3.8 1.3,5.3c0.9,1.5 2.1,2.7 3.8,3.6c1.6,0.9 3.4,1.3 5.4,1.3Z" style="fill:#fff;fill-rule:nonzero;"/>
                <path d="M1568.9,259.3c-2.9,0 -5.4,-0.6 -7.6,-1.8c-2.2,-1.2 -3.9,-2.9 -5.1,-5c-1.2,-2.1 -1.8,-4.6 -1.8,-7.3c0,-2.7 0.6,-5.2 1.8,-7.3c1.2,-2.1 2.8,-3.8 4.9,-5c2.1,-1.2 4.4,-1.8 6.9,-1.8c2.6,0 4.9,0.6 6.9,1.8c2,1.2 3.6,2.8 4.8,5c1.2,2.1 1.7,4.6 1.7,7.4c0,0.2 -0.1,1 -0.1,1.2l-24.2,0l0,-2.8l22.1,0l-1.5,1.1c0,-2 -0.4,-3.8 -1.3,-5.4c-0.9,-1.6 -2,-2.8 -3.5,-3.7c-1.5,-0.9 -3.2,-1.3 -5.1,-1.3c-1.9,0 -3.6,0.4 -5.1,1.3c-1.5,0.9 -2.7,2.1 -3.5,3.7c-0.8,1.6 -1.3,3.4 -1.3,5.4l0,0.6c0,2.1 0.5,4 1.4,5.6c0.9,1.6 2.2,2.9 3.9,3.8c1.7,0.9 3.6,1.3 5.7,1.3c1.7,0 3.3,-0.3 4.7,-0.9c1.5,-0.6 2.7,-1.5 3.8,-2.7l2.1,2.4c-1.2,1.5 -2.8,2.6 -4.6,3.4c-1.8,0.8 -3.9,1.2 -6.1,1.2Z" style="fill:#fff;fill-rule:nonzero;"/>
                <path d="M1603.2,231c2.3,0 4.2,0.4 5.9,1.3c1.7,0.9 3,2.2 4,3.9c1,1.8 1.5,4 1.5,6.7l0,16.1l-3.8,0l0,-15.7c0,-2.9 -0.7,-5.1 -2.2,-6.6c-1.5,-1.5 -3.5,-2.2 -6.2,-2.2c-2,0 -3.7,0.4 -5.2,1.2c-1.5,0.8 -2.6,1.9 -3.4,3.4c-0.8,1.5 -1.2,3.3 -1.2,5.4l0,14.6l-3.8,0l0,-27.7l3.6,0l0,7.6l-0.6,-1.4c0.9,-2 2.3,-3.6 4.2,-4.7c1.9,-1.1 4.2,-1.7 6.9,-1.7Z" style="fill:#fff;fill-rule:nonzero;"/>
                <path d="M1636.3,259.3c-2.7,0 -5.2,-0.6 -7.4,-1.8c-2.2,-1.2 -3.9,-2.9 -5.1,-5c-1.2,-2.1 -1.8,-4.6 -1.8,-7.3c0,-2.8 0.6,-5.2 1.8,-7.3c1.2,-2.1 2.9,-3.8 5.1,-5c2.2,-1.2 4.6,-1.8 7.4,-1.8c2.4,0 4.5,0.5 6.4,1.4c1.9,0.9 3.4,2.3 4.5,4.1l-2.8,1.9c-1,-1.4 -2.1,-2.4 -3.5,-3.1c-1.4,-0.7 -2.9,-1 -4.6,-1c-2,0 -3.8,0.4 -5.3,1.3c-1.6,0.9 -2.8,2.2 -3.8,3.8c-0.9,1.6 -1.4,3.5 -1.4,5.7c0,2.2 0.5,4.1 1.4,5.7c0.9,1.6 2.2,2.9 3.8,3.8c1.6,0.9 3.4,1.3 5.3,1.3c1.7,0 3.2,-0.3 4.6,-1c1.4,-0.7 2.6,-1.7 3.5,-3.1l2.8,1.9c-1.1,1.8 -2.6,3.2 -4.5,4.1c-1.9,0.9 -4,1.4 -6.4,1.4Z" style="fill:#fff;fill-rule:nonzero;"/>
                <path d="M1665.9,259.3c-2.9,0 -5.4,-0.6 -7.6,-1.8c-2.2,-1.2 -3.9,-2.9 -5.1,-5c-1.2,-2.1 -1.8,-4.6 -1.8,-7.3c0,-2.7 0.6,-5.2 1.8,-7.3c1.2,-2.1 2.8,-3.8 4.9,-5c2.1,-1.2 4.4,-1.8 6.9,-1.8c2.6,0 4.9,0.6 6.9,1.8c2,1.2 3.6,2.8 4.8,5c1.2,2.1 1.7,4.6 1.7,7.4c0,0.2 -0.1,1 -0.1,1.2l-24.2,0l0,-2.8l22.1,0l-1.5,1.1c0,-2 -0.4,-3.8 -1.3,-5.4c-0.9,-1.6 -2,-2.8 -3.5,-3.7c-1.5,-0.9 -3.2,-1.3 -5.1,-1.3c-1.9,0 -3.6,0.4 -5.1,1.3c-1.5,0.9 -2.7,2.1 -3.5,3.7c-0.8,1.6 -1.3,3.4 -1.3,5.4l0,0.6c0,2.1 0.5,4 1.4,5.6c0.9,1.6 2.2,2.9 3.9,3.8c1.7,0.9 3.6,1.3 5.7,1.3c1.7,0 3.3,-0.3 4.7,-0.9c1.5,-0.6 2.7,-1.5 3.8,-2.7l2.1,2.4c-1.2,1.5 -2.8,2.6 -4.6,3.4c-1.8,0.8 -3.9,1.2 -6.1,1.2Z" style="fill:#fff;fill-rule:nonzero;"/>
            </g>
            <g id="LOGO">
                <g>
                    <g id="pantone-process-yellow-C" serif:id="pantone process yellow C">
                        <rect x="91.9" y="311.9" width="117.6" height="423" style="fill:#fae100;fill-rule:nonzero;"/>
                        <path d="M262.3,522.5c0,-41.6 8.7,-78.7 26.1,-111.3c17.4,-32.6 42.1,-58 74.1,-76.2c32,-18.2 68.8,-27.3 110.4,-27.3c52.8,0 97.2,14.1 133.2,42.3c31.3,24.5 69.6,95.2 69.6,95.7c-0,0.7 0.1,6.2 0,10.3c-0.1,3.9 0,7.1 0,8.9l-126.6,0c-7.6,-16 -18.1,-28.2 -31.5,-36.6c-13.4,-8.4 -28.9,-12.6 -46.5,-12.6c-27.2,0 -48.9,9.7 -65.1,29.1c-16.2,19.4 -24.3,45.3 -24.3,77.7c0,32.8 8.1,58.9 24.3,78.3c16.2,19.4 37.9,29.1 65.1,29.1c17.6,0 33.1,-4.2 46.5,-12.6c13.4,-8.4 23.9,-20.6 31.5,-36.6l126.6,-19.1c0,0 -1.9,27.5 -3.1,31.6c-11.5,42.5 -33.7,76.6 -66.5,102.3c-36,28.2 -80.4,42.3 -133.2,42.3c-41.6,0 -78.4,-9.1 -110.4,-27.3c-32,-18.2 -56.7,-43.6 -74.1,-76.2c-17.4,-32.6 -26.1,-69.9 -26.1,-111.9Z" style="fill:#fae100;fill-rule:nonzero;"/>
                        <path d="M999.1,665.9l-150,0l-22.8,69l-123.6,0c0,0 -0.1,-4.4 -0,-9c0,-2.5 0,-5.2 0,-7.5c-0,-1.1 -0.1,-2.6 0,-3c25.7,-70.5 154.2,-403.5 154.2,-403.5l135.6,0c0,0 128,333 153.6,403.5c0.5,1.4 0,19.5 0,19.5l-124.2,0l-22.8,-69Z" style="fill:#fae100;fill-rule:nonzero;"/>
                        <path d="M1678.3,311.9l0,423l-493.8,0l0,-423l142.2,0l106.2,274.8l103.8,-274.8l141.6,0Z" style="fill:#fae100;fill-rule:nonzero;"/>
                        <rect x="1745.5" y="311.9" width="117.6" height="423" style="fill:#fae100;fill-rule:nonzero;"/>
                    </g>
                    <g id="pantone-p112-8-C" serif:id="pantone p112-8 C">
                        <rect x="91.9" y="292.4" width="117.6" height="423" style="fill:#008acd;fill-rule:nonzero;"/>
                        <path d="M262.3,503c0,-41.6 8.7,-78.7 26.1,-111.3c17.4,-32.6 42.1,-58 74.1,-76.2c32,-18.2 68.8,-27.3 110.4,-27.3c52.8,0 97.2,14.1 133.2,42.3c36,28.2 59.2,66.5 69.6,114.9l-126.6,0c-7.6,-16 -18.1,-28.2 -31.5,-36.6c-13.4,-8.4 -28.9,-12.6 -46.5,-12.6c-27.2,0 -48.9,9.7 -65.1,29.1c-16.2,19.4 -24.3,45.3 -24.3,77.7c0,32.8 8.1,58.9 24.3,78.3c16.2,19.4 37.9,29.1 65.1,29.1c17.6,0 33.1,-4.2 46.5,-12.6c13.4,-8.4 23.9,-20.6 31.5,-36.6l126.6,0c-10.4,48.4 -33.6,86.7 -69.6,114.9c-36,28.2 -80.4,42.3 -133.2,42.3c-41.6,0 -78.4,-9.1 -110.4,-27.3c-32,-18.2 -56.7,-43.6 -74.1,-76.2c-17.4,-32.6 -26.1,-69.9 -26.1,-111.9Z" style="fill:#008acd;fill-rule:nonzero;"/>
                        <path d="M999.1,646.4l-150,0l-22.8,69l-123.6,0l154.2,-423l135.6,0l153.6,423l-124.2,0l-22.8,-69Z" style="fill:#008acd;fill-rule:nonzero;"/>
                        <path d="M1678.3,292.4l0,423l-493.8,0l0,-423l142.2,0l106.2,274.8l103.8,-274.8l141.6,0Z" style="fill:#008acd;fill-rule:nonzero;"/>
                        <rect x="1745.5" y="292.4" width="117.6" height="423" style="fill:#008acd;fill-rule:nonzero;"/>
                    </g>
                    <g>
                        <clipPath id="_clip1">
                            <rect x="91.9" y="288.2" width="279.5" height="413.2"/>
                        </clipPath>
                        <g clip-path="url(#_clip1)">
                            <g id="IC_Chip">
                                <path d="M165.4,574.1l156.5,0" style="fill:none;stroke:#fff;stroke-width:12.5px;"/>
                                <path d="M165.4,522.8l156.5,0" style="fill:none;stroke:#fff;stroke-width:12.5px;"/>
                                <path d="M165.4,430.5l156.5,0" style="fill:none;stroke:#fff;stroke-width:12.5px;"/>
                                <path d="M145.5,399.7l0,-29m-0,271l0,-34.7" style="fill:none;stroke:#fff;stroke-width:12.5px;"/>
                                <path d="M145.5,399.7l0,-29m-0,271l0,-34.7" style="fill:none;stroke:#fff;stroke-width:12.5px;"/>
                                <g id="Layer4">
                                    <rect x="-41.9" y="399.7" width="207.3" height="207.3" style="fill:none;stroke:#fff;stroke-width:12.5px;"/>
                                    <path d="M130.2,471.1l0,64.5c0,17.8 -14.4,32.2 -32.2,32.2l-72.4,0c-17.8,0 -32.2,-14.4 -32.2,-32.2l0,-64.5c0,-17.8 14.4,-32.2 32.2,-32.2l72.4,0c17.8,0 32.2,14.4 32.2,32.2Z" style="fill:none;stroke:#fff;stroke-width:12.5px;"/>
                                    <path d="M165.4,475.5l156.5,0" style="fill:none;stroke:#fff;stroke-width:12.5px;"/>
                                </g>
                            </g>
                            <circle cx="342" cy="428.3" r="15.6" style="fill:none;stroke:#fff;stroke-width:12.5px;"/>
                            <circle cx="145.5" cy="355.1" r="15.6" style="fill:none;stroke:#fff;stroke-width:12.5px;"/>
                            <circle cx="145.5" cy="657.3" r="15.6" style="fill:none;stroke:#fff;stroke-width:12.5px;"/>
                            <circle cx="342" cy="522.8" r="15.6" style="fill:none;stroke:#fff;stroke-width:12.5px;"/>
                            <circle cx="342" cy="474.5" r="15.6" style="fill:none;stroke:#fff;stroke-width:12.5px;"/>
                            <circle cx="342" cy="573.8" r="15.6" style="fill:none;stroke:#fff;stroke-width:12.5px;"/>
                        </g>
                    </g>
                    <g>
                        <clipPath id="_clip2">
                            <rect x="91.9" y="288.2" width="279.5" height="413.2"/>
                        </clipPath>
                        <g clip-path="url(#_clip2)">
                            <g id="IC_Chip1" serif:id="IC_Chip">
                                <path d="M165.4,574.1l156.5,0" style="fill:none;stroke:#fff;stroke-width:12.5px;"/>
                                <path d="M165.4,522.8l156.5,0" style="fill:none;stroke:#fff;stroke-width:12.5px;"/>
                                <path d="M165.4,430.5l156.5,0" style="fill:none;stroke:#fff;stroke-width:12.5px;"/>
                                <path d="M145.5,399.7l0,-29m-0,271l0,-34.7" style="fill:none;stroke:#fff;stroke-width:12.5px;"/>
                                <path d="M145.5,399.7l0,-29m-0,271l0,-34.7" style="fill:none;stroke:#fff;stroke-width:12.5px;"/>
                                <g id="Layer41" serif:id="Layer4">
                                    <rect x="-41.9" y="399.7" width="207.3" height="207.3" style="fill:none;stroke:#fff;stroke-width:12.5px;"/>
                                    <path d="M130.2,471.1l0,64.5c0,17.8 -14.4,32.2 -32.2,32.2l-72.4,0c-17.8,0 -32.2,-14.4 -32.2,-32.2l0,-64.5c0,-17.8 14.4,-32.2 32.2,-32.2l72.4,0c17.8,0 32.2,14.4 32.2,32.2Z" style="fill:none;stroke:#fff;stroke-width:12.5px;"/>
                                    <path d="M165.4,475.5l156.5,0" style="fill:none;stroke:#fff;stroke-width:12.5px;"/>
                                </g>
                            </g>
                            <circle cx="342" cy="428.3" r="15.6" style="fill:none;stroke:#fff;stroke-width:12.5px;"/>
                            <circle cx="145.5" cy="355.1" r="15.6" style="fill:none;stroke:#fff;stroke-width:12.5px;"/>
                            <circle cx="145.5" cy="657.3" r="15.6" style="fill:none;stroke:#fff;stroke-width:12.5px;"/>
                            <circle cx="342" cy="522.8" r="15.6" style="fill:none;stroke:#fff;stroke-width:12.5px;"/>
                            <circle cx="342" cy="474.5" r="15.6" style="fill:none;stroke:#fff;stroke-width:12.5px;"/>
                            <circle cx="342" cy="573.8" r="15.6" style="fill:none;stroke:#fff;stroke-width:12.5px;"/>
                        </g>
                    </g>
                    <g id="Layer5">
                        <path d="M1289,461.2c0,256.4 0,254.3 0,254.3" style="fill:none;stroke:#fff;stroke-width:12.5px;stroke-linecap:square;stroke-linejoin:miter;"/>
                        <path d="M1592.3,442.5c0,275.3 0,273 0,273" style="fill:none;stroke:#fff;stroke-width:12.5px;stroke-linejoin:bevel;"/>
                        <circle cx="1289" cy="631.1" r="42.8" style="fill:#d40f7d;stroke:#fff;stroke-width:8.3px;"/>
                        <circle cx="1592.3" cy="503.9" r="42.8" style="fill:#d40f7d;stroke:#fff;stroke-width:8.3px;"/>
                    </g>
                    <g>
                        <path d="M1289,461.2c0,256.4 0,254.3 0,254.3" style="fill:none;stroke:#fff;stroke-width:12.5px;stroke-linecap:square;stroke-linejoin:miter;"/>
                        <path d="M1592.3,442.5c0,275.3 0,273 0,273" style="fill:none;stroke:#fff;stroke-width:12.5px;stroke-linejoin:bevel;"/>
                        <circle cx="1289" cy="631.1" r="42.8" style="fill:#d40f7d;stroke:#fff;stroke-width:8.3px;"/>
                        <circle cx="1592.3" cy="503.9" r="42.8" style="fill:#d40f7d;stroke:#fff;stroke-width:8.3px;"/>
                    </g>
                    <g id="Layer6">
                        <g id="Gear-icon.png">
                            <path d="M983.2,417.3c2.1,2.1 2,2.1 4.1,4.1c12.3,11.8 12.6,12 12.2,13.4c-0.2,0.9 -11.7,17.6 -11.5,18.9c0.2,1.4 1.6,0.9 6.8,16.5c0.6,1.9 8.2,2.6 19.8,5.4c3.4,0.8 2.6,2.1 2.6,13.7c0,13.8 0.5,14.8 -2,15.4c-14.6,3.4 -19.9,4.2 -20.3,5.2c-0.6,1.9 -1.4,6.2 -6.6,15.9c-0.8,1.4 -0.2,1.6 7.1,13.2c4,6.3 4.5,6.8 2.9,8.6c-0.1,0.1 -0.1,0.1 -1.8,1.8c-5.5,5.4 -5.4,5.4 -10.9,10.9l-1.8,1.8c-2.9,2.9 -3.2,4.3 -6.8,2c-5.6,-3.6 -5.6,-3.5 -11.2,-7.1c-5.1,-3.2 -5.4,-3 -7,-2.2c-12.5,6.7 -15,4 -16,8.4c-4.2,19 -4.2,19.6 -5.8,19.8c-0.6,0.1 -20.8,-0 -24.3,0.1c-3.3,0.1 -2.7,-1.2 -3.4,-4.5c-3.8,-16.8 -3.6,-17.3 -4.8,-17.7c-8.3,-2.7 -8.2,-2.7 -15.9,-6.6c-1.7,-0.9 -3,1 -18.2,10.4c-2.5,1.5 -3.5,-0.4 -5.6,-2.5l-1.8,-1.8c-0.5,-0.4 -0.9,-0.9 -1.4,-1.3c-2.8,-2.8 -2.6,-2.8 -5.4,-5.5l-1.5,-1.6l-2.6,-2.6c-2.2,-2.4 -3.1,-2.1 -2.8,-4c0.3,-1.4 11.6,-17.5 11.2,-18.8c-1.3,-4.1 -2.7,-3.5 -6.8,-16.1c-0.8,-2.4 -1.6,-1.9 -19.1,-5.8c-4.5,-1 -3.4,-2.6 -3.4,-10.1c0,-17.6 -0.4,-18.4 1.6,-19c6.8,-1.8 20.3,-3.9 20.8,-5.3c2.9,-8.3 3,-8.2 6.7,-16.2c1.4,-2.8 -13.1,-18.4 -10.7,-20.9c4.4,-4.6 10.2,-10.4 11.1,-11.3c2.2,-2.2 2.2,-2.1 4.3,-4.3c2.7,-2.7 3.1,-3.3 6.3,-1.4c15.4,9.5 15.6,10.7 18.1,9.4c13.2,-7 15.3,-4.4 16,-7.5c3.8,-16.9 3.5,-21 6.7,-21.1c0.9,-0 23.6,-0 23.6,-0c3.2,0.1 2.5,1.6 5.9,16.4c0.6,2.6 0.8,5.7 2.3,6.2c7.7,2.5 7.8,2.3 15,6.1c2.1,1.1 2.4,0.5 13.6,-6.7c7,-4.5 7.5,-4.6 8.5,-3.5c0.1,0.1 0.1,0.1 1.8,1.8Zm-101.8,72.5c0.2,-3.8 0.1,-12.4 6.6,-22.6c4.9,-7.7 10.8,-11.7 11.9,-12.5c26.8,-18.5 61.3,-1.3 66.7,26.3c7.8,39.9 -35.1,63.7 -63.1,46.8c-21,-12.7 -21.8,-30 -22.1,-38Z" style="fill:#fff;"/>
                        </g>
                        <g id="Gear-icon.png1" serif:id="Gear-icon.png">
                            <path d="M983.2,417.3c2.1,2.1 2,2.1 4.1,4.1c12.3,11.8 12.6,12 12.2,13.4c-0.2,0.9 -11.7,17.6 -11.5,18.9c0.2,1.4 1.6,0.9 6.8,16.5c0.6,1.9 8.2,2.6 19.8,5.4c3.4,0.8 2.6,2.1 2.6,13.7c0,13.8 0.5,14.8 -2,15.4c-14.6,3.4 -19.9,4.2 -20.3,5.2c-0.6,1.9 -1.4,6.2 -6.6,15.9c-0.8,1.4 -0.2,1.6 7.1,13.2c4,6.3 4.5,6.8 2.9,8.6c-0.1,0.1 -0.1,0.1 -1.8,1.8c-5.5,5.4 -5.4,5.4 -10.9,10.9l-1.8,1.8c-2.9,2.9 -3.2,4.3 -6.8,2c-5.6,-3.6 -5.6,-3.5 -11.2,-7.1c-5.1,-3.2 -5.4,-3 -7,-2.2c-12.5,6.7 -15,4 -16,8.4c-4.2,19 -4.2,19.6 -5.8,19.8c-0.6,0.1 -20.8,-0 -24.3,0.1c-3.3,0.1 -2.7,-1.2 -3.4,-4.5c-3.8,-16.8 -3.6,-17.3 -4.8,-17.7c-8.3,-2.7 -8.2,-2.7 -15.9,-6.6c-1.7,-0.9 -3,1 -18.2,10.4c-2.5,1.5 -3.5,-0.4 -5.6,-2.5l-1.8,-1.8c-0.5,-0.4 -0.9,-0.9 -1.4,-1.3c-2.8,-2.8 -2.6,-2.8 -5.4,-5.5l-1.5,-1.6l-2.6,-2.6c-2.2,-2.4 -3.1,-2.1 -2.8,-4c0.3,-1.4 11.6,-17.5 11.2,-18.8c-1.3,-4.1 -2.7,-3.5 -6.8,-16.1c-0.8,-2.4 -1.6,-1.9 -19.1,-5.8c-4.5,-1 -3.4,-2.6 -3.4,-10.1c0,-17.6 -0.4,-18.4 1.6,-19c6.8,-1.8 20.3,-3.9 20.8,-5.3c2.9,-8.3 3,-8.2 6.7,-16.2c1.4,-2.8 -13.1,-18.4 -10.7,-20.9c4.4,-4.6 10.2,-10.4 11.1,-11.3c2.2,-2.2 2.2,-2.1 4.3,-4.3c2.7,-2.7 3.1,-3.3 6.3,-1.4c15.4,9.5 15.6,10.7 18.1,9.4c13.2,-7 15.3,-4.4 16,-7.5c3.8,-16.9 3.5,-21 6.7,-21.1c0.9,-0 23.6,-0 23.6,-0c3.2,0.1 2.5,1.6 5.9,16.4c0.6,2.6 0.8,5.7 2.3,6.2c7.7,2.5 7.8,2.3 15,6.1c2.1,1.1 2.4,0.5 13.6,-6.7c7,-4.5 7.5,-4.6 8.5,-3.5c0.1,0.1 0.1,0.1 1.8,1.8Zm-101.8,72.5c0.2,-3.8 0.1,-12.4 6.6,-22.6c4.9,-7.7 10.8,-11.7 11.9,-12.5c26.8,-18.5 61.3,-1.3 66.7,26.3c7.8,39.9 -35.1,63.7 -63.1,46.8c-21,-12.7 -21.8,-30 -22.1,-38Z" style="fill:#fff;"/>
                        </g>
                    </g>
                    <g id="Layer7">
                        <g>
                            <g>
                                <path d="M1804.3,101.6c-32.6,0 -59.1,26.5 -59.1,59.1c0,11.4 3.2,22.4 9.4,31.9c4.5,7 10.3,12.9 17.1,17.4c-2.4,2.5 -3.9,5.9 -3.9,9.6c0,3.7 1.4,7 3.8,9.5c-2.3,2.5 -3.8,5.8 -3.8,9.5c0,7.6 6.2,13.8 13.8,13.8l1.8,0l0,1.9c0,8.6 9,15.4 20.4,15.4l1,0c11.4,0 20.4,-6.8 20.4,-15.4l0,-1.9l1.8,0c7.6,0 13.8,-6.2 13.8,-13.8c0,-3.7 -1.4,-7 -3.8,-9.5c2.3,-2.5 3.8,-5.8 3.8,-9.5c0,-3.7 -1.5,-7.1 -3.9,-9.6c6.8,-4.5 12.7,-10.4 17.1,-17.4c6.1,-9.5 9.4,-20.6 9.4,-31.9c0,-32.6 -26.5,-59.1 -59.1,-59.1Zm12.3,152.6c0,3.2 -4.9,6.8 -11.8,6.8l-1,0c-7,0 -11.8,-3.6 -11.8,-6.8l0,-1.9l24.7,0l0,1.9l-0,0Zm10.4,-10.4l-45.5,0c-2.9,0 -5.2,-2.3 -5.2,-5.2c0,-2.9 2.3,-5.2 5.2,-5.2l45.5,0c2.9,0 5.2,2.3 5.2,5.2c0,2.9 -2.3,5.2 -5.2,5.2Zm0,-19l-45.5,0c-2.9,0 -5.2,-2.3 -5.2,-5.2c0,-2.9 2.3,-5.2 5.2,-5.2l45.5,0c2.9,0 5.2,2.3 5.2,5.2c0,2.9 -2.3,5.2 -5.2,5.2Zm-32.7,-49.7l19.9,0c-4.5,10.8 -7,24.3 -8,30.7l-3.9,0c-1,-6.5 -3.5,-19.9 -8,-30.7Zm32.7,30.7l-12.1,0c1.3,-7.9 4.5,-23.6 9.9,-32.8c0.8,-1.3 0.8,-3 0,-4.3c-0.8,-1.3 -2.2,-2.2 -3.7,-2.2l-33.7,0c-1.5,0 -3,0.8 -3.7,2.2c-0.8,1.3 -0.8,3 0,4.3c5.4,9.2 8.6,24.9 9.9,32.8l-12.1,0c-16.9,-8.5 -27.8,-26.1 -27.8,-45.1c0,-27.9 22.7,-50.5 50.5,-50.5c27.9,0 50.5,22.7 50.5,50.5c0,19 -10.9,36.6 -27.8,45.1Z" style="fill:#fae100;fill-rule:nonzero;"/>
                                <g>
                                    <g>
                                        <path d="M1804.3,89.1c-2.4,0 -4.3,-1.9 -4.3,-4.3l0,-18.4c0,-2.4 1.9,-4.3 4.3,-4.3c2.4,0 4.3,1.9 4.3,4.3l0,18.4c0,2.4 -1.9,4.3 -4.3,4.3Z" style="fill:#fae100;fill-rule:nonzero;"/>
                                    </g>
                                    <g>
                                        <g>
                                            <path d="M1749.5,111.8c-1.1,0 -2.2,-0.4 -3,-1.3l-13,-13c-1.7,-1.7 -1.7,-4.4 0,-6.1c1.7,-1.7 4.4,-1.7 6.1,0l13,13c1.7,1.7 1.7,4.4 0,6.1c-0.8,0.8 -1.9,1.3 -3,1.3Z" style="fill:#fae100;fill-rule:nonzero;"/>
                                        </g>
                                        <g>
                                            <path d="M1859.2,111.8c-1.1,0 -2.2,-0.4 -3,-1.3c-1.7,-1.7 -1.7,-4.4 0,-6.1l13,-13c1.7,-1.7 4.4,-1.7 6.1,0c1.7,1.7 1.7,4.4 0,6.1l-13,13c-0.8,0.8 -1.9,1.3 -3,1.3Z" style="fill:#fae100;fill-rule:nonzero;"/>
                                        </g>
                                    </g>
                                    <g>
                                        <g>
                                            <path d="M1727.3,162.3l-18.4,0c-2.4,0 -4.3,-1.9 -4.3,-4.3c0,-2.4 1.9,-4.3 4.3,-4.3l18.4,0c2.4,0 4.3,1.9 4.3,4.3c-0,2.4 -1.9,4.3 -4.3,4.3Z" style="fill:#fae100;fill-rule:nonzero;"/>
                                        </g>
                                        <g>
                                            <path d="M1899.7,162.3l-18.4,0c-2.4,0 -4.3,-1.9 -4.3,-4.3c0,-2.4 1.9,-4.3 4.3,-4.3l18.4,0c2.4,0 4.3,1.9 4.3,4.3c0,2.4 -1.9,4.3 -4.3,4.3Z" style="fill:#fae100;fill-rule:nonzero;"/>
                                        </g>
                                    </g>
                                </g>
                            </g>
                        </g>
                    </g>
                </g>
                <g>
                    <g id="pantone-process-yellow-C1" serif:id="pantone process yellow C">
                        <rect x="91.9" y="311.9" width="117.6" height="423" style="fill:#fae100;fill-rule:nonzero;"/>
                        <path d="M262.3,522.5c0,-41.6 8.7,-78.7 26.1,-111.3c17.4,-32.6 42.1,-58 74.1,-76.2c32,-18.2 68.8,-27.3 110.4,-27.3c52.8,0 97.2,14.1 133.2,42.3c31.3,24.5 69.6,95.2 69.6,95.7c-0,0.7 0.1,6.2 0,10.3c-0.1,3.9 0,7.1 0,8.9l-126.6,0c-7.6,-16 -18.1,-28.2 -31.5,-36.6c-13.4,-8.4 -28.9,-12.6 -46.5,-12.6c-27.2,0 -48.9,9.7 -65.1,29.1c-16.2,19.4 -24.3,45.3 -24.3,77.7c0,32.8 8.1,58.9 24.3,78.3c16.2,19.4 37.9,29.1 65.1,29.1c17.6,0 33.1,-4.2 46.5,-12.6c13.4,-8.4 23.9,-20.6 31.5,-36.6l126.6,-19.1c0,0 -1.9,27.5 -3.1,31.6c-11.5,42.5 -33.7,76.6 -66.5,102.3c-36,28.2 -80.4,42.3 -133.2,42.3c-41.6,0 -78.4,-9.1 -110.4,-27.3c-32,-18.2 -56.7,-43.6 -74.1,-76.2c-17.4,-32.6 -26.1,-69.9 -26.1,-111.9Z" style="fill:#fae100;fill-rule:nonzero;"/>
                        <path d="M999.1,665.9l-150,0l-22.8,69l-123.6,0c0,0 -0.1,-4.4 -0,-9c0,-2.5 0,-5.2 0,-7.5c-0,-1.1 -0.1,-2.6 0,-3c25.7,-70.5 154.2,-403.5 154.2,-403.5l135.6,0c0,0 128,333 153.6,403.5c0.5,1.4 0,19.5 0,19.5l-124.2,0l-22.8,-69Z" style="fill:#fae100;fill-rule:nonzero;"/>
                        <path d="M1678.3,311.9l0,423l-493.8,0l0,-423l142.2,0l106.2,274.8l103.8,-274.8l141.6,0Z" style="fill:#fae100;fill-rule:nonzero;"/>
                        <rect x="1745.5" y="311.9" width="117.6" height="423" style="fill:#fae100;fill-rule:nonzero;"/>
                    </g>
                    <g id="pantone-p112-8-C1" serif:id="pantone p112-8 C">
                        <rect x="91.9" y="292.4" width="117.6" height="423" style="fill:#008acd;fill-rule:nonzero;"/>
                        <path d="M262.3,503c0,-41.6 8.7,-78.7 26.1,-111.3c17.4,-32.6 42.1,-58 74.1,-76.2c32,-18.2 68.8,-27.3 110.4,-27.3c52.8,0 97.2,14.1 133.2,42.3c36,28.2 59.2,66.5 69.6,114.9l-126.6,0c-7.6,-16 -18.1,-28.2 -31.5,-36.6c-13.4,-8.4 -28.9,-12.6 -46.5,-12.6c-27.2,0 -48.9,9.7 -65.1,29.1c-16.2,19.4 -24.3,45.3 -24.3,77.7c0,32.8 8.1,58.9 24.3,78.3c16.2,19.4 37.9,29.1 65.1,29.1c17.6,0 33.1,-4.2 46.5,-12.6c13.4,-8.4 23.9,-20.6 31.5,-36.6l126.6,0c-10.4,48.4 -33.6,86.7 -69.6,114.9c-36,28.2 -80.4,42.3 -133.2,42.3c-41.6,0 -78.4,-9.1 -110.4,-27.3c-32,-18.2 -56.7,-43.6 -74.1,-76.2c-17.4,-32.6 -26.1,-69.9 -26.1,-111.9Z" style="fill:#008acd;fill-rule:nonzero;"/>
                        <path d="M999.1,646.4l-150,0l-22.8,69l-123.6,0l154.2,-423l135.6,0l153.6,423l-124.2,0l-22.8,-69Z" style="fill:#008acd;fill-rule:nonzero;"/>
                        <path d="M1678.3,292.4l0,423l-493.8,0l0,-423l142.2,0l106.2,274.8l103.8,-274.8l141.6,0Z" style="fill:#008acd;fill-rule:nonzero;"/>
                        <rect x="1745.5" y="292.4" width="117.6" height="423" style="fill:#008acd;fill-rule:nonzero;"/>
                    </g>
                    <g>
                        <clipPath id="_clip3">
                            <rect x="91.9" y="288.2" width="279.5" height="413.2"/>
                        </clipPath>
                        <g clip-path="url(#_clip3)">
                            <g id="IC_Chip2" serif:id="IC_Chip">
                                <path d="M165.4,574.1l156.5,0" style="fill:none;stroke:#fff;stroke-width:12.5px;"/>
                                <path d="M165.4,522.8l156.5,0" style="fill:none;stroke:#fff;stroke-width:12.5px;"/>
                                <path d="M165.4,430.5l156.5,0" style="fill:none;stroke:#fff;stroke-width:12.5px;"/>
                                <path d="M145.5,399.7l0,-29m-0,271l0,-34.7" style="fill:none;stroke:#fff;stroke-width:12.5px;"/>
                                <path d="M145.5,399.7l0,-29m-0,271l0,-34.7" style="fill:none;stroke:#fff;stroke-width:12.5px;"/>
                                <g id="Layer42" serif:id="Layer4">
                                    <rect x="-41.9" y="399.7" width="207.3" height="207.3" style="fill:none;stroke:#fff;stroke-width:12.5px;"/>
                                    <path d="M130.2,471.1l0,64.5c0,17.8 -14.4,32.2 -32.2,32.2l-72.4,0c-17.8,0 -32.2,-14.4 -32.2,-32.2l0,-64.5c0,-17.8 14.4,-32.2 32.2,-32.2l72.4,0c17.8,0 32.2,14.4 32.2,32.2Z" style="fill:none;stroke:#fff;stroke-width:12.5px;"/>
                                    <path d="M165.4,475.5l156.5,0" style="fill:none;stroke:#fff;stroke-width:12.5px;"/>
                                </g>
                            </g>
                            <circle cx="342" cy="428.3" r="15.6" style="fill:none;stroke:#fff;stroke-width:12.5px;"/>
                            <circle cx="145.5" cy="355.1" r="15.6" style="fill:none;stroke:#fff;stroke-width:12.5px;"/>
                            <circle cx="145.5" cy="657.3" r="15.6" style="fill:none;stroke:#fff;stroke-width:12.5px;"/>
                            <circle cx="342" cy="522.8" r="15.6" style="fill:none;stroke:#fff;stroke-width:12.5px;"/>
                            <circle cx="342" cy="474.5" r="15.6" style="fill:none;stroke:#fff;stroke-width:12.5px;"/>
                            <circle cx="342" cy="573.8" r="15.6" style="fill:none;stroke:#fff;stroke-width:12.5px;"/>
                        </g>
                    </g>
                    <g>
                        <clipPath id="_clip4">
                            <rect x="91.9" y="288.2" width="279.5" height="413.2"/>
                        </clipPath>
                        <g clip-path="url(#_clip4)">
                            <g id="IC_Chip3" serif:id="IC_Chip">
                                <path d="M165.4,574.1l156.5,0" style="fill:none;stroke:#fff;stroke-width:12.5px;"/>
                                <path d="M165.4,522.8l156.5,0" style="fill:none;stroke:#fff;stroke-width:12.5px;"/>
                                <path d="M165.4,430.5l156.5,0" style="fill:none;stroke:#fff;stroke-width:12.5px;"/>
                                <path d="M145.5,399.7l0,-29m-0,271l0,-34.7" style="fill:none;stroke:#fff;stroke-width:12.5px;"/>
                                <path d="M145.5,399.7l0,-29m-0,271l0,-34.7" style="fill:none;stroke:#fff;stroke-width:12.5px;"/>
                                <g id="Layer43" serif:id="Layer4">
                                    <rect x="-41.9" y="399.7" width="207.3" height="207.3" style="fill:none;stroke:#fff;stroke-width:12.5px;"/>
                                    <path d="M130.2,471.1l0,64.5c0,17.8 -14.4,32.2 -32.2,32.2l-72.4,0c-17.8,0 -32.2,-14.4 -32.2,-32.2l0,-64.5c0,-17.8 14.4,-32.2 32.2,-32.2l72.4,0c17.8,0 32.2,14.4 32.2,32.2Z" style="fill:none;stroke:#fff;stroke-width:12.5px;"/>
                                    <path d="M165.4,475.5l156.5,0" style="fill:none;stroke:#fff;stroke-width:12.5px;"/>
                                </g>
                            </g>
                            <circle cx="342" cy="428.3" r="15.6" style="fill:none;stroke:#fff;stroke-width:12.5px;"/>
                            <circle cx="145.5" cy="355.1" r="15.6" style="fill:none;stroke:#fff;stroke-width:12.5px;"/>
                            <circle cx="145.5" cy="657.3" r="15.6" style="fill:none;stroke:#fff;stroke-width:12.5px;"/>
                            <circle cx="342" cy="522.8" r="15.6" style="fill:none;stroke:#fff;stroke-width:12.5px;"/>
                            <circle cx="342" cy="474.5" r="15.6" style="fill:none;stroke:#fff;stroke-width:12.5px;"/>
                            <circle cx="342" cy="573.8" r="15.6" style="fill:none;stroke:#fff;stroke-width:12.5px;"/>
                        </g>
                    </g>
                    <g id="Layer51" serif:id="Layer5">
                        <path d="M1289,461.2c0,256.4 0,254.3 0,254.3" style="fill:none;stroke:#fff;stroke-width:12.5px;stroke-linecap:square;stroke-linejoin:miter;"/>
                        <path d="M1592.3,442.5c0,275.3 0,273 0,273" style="fill:none;stroke:#fff;stroke-width:12.5px;stroke-linejoin:bevel;"/>
                        <circle cx="1289" cy="631.1" r="42.8" style="fill:#d40f7d;stroke:#fff;stroke-width:8.3px;"/>
                        <circle cx="1592.3" cy="503.9" r="42.8" style="fill:#d40f7d;stroke:#fff;stroke-width:8.3px;"/>
                    </g>
                    <g>
                        <path d="M1289,461.2c0,256.4 0,254.3 0,254.3" style="fill:none;stroke:#fff;stroke-width:12.5px;stroke-linecap:square;stroke-linejoin:miter;"/>
                        <path d="M1592.3,442.5c0,275.3 0,273 0,273" style="fill:none;stroke:#fff;stroke-width:12.5px;stroke-linejoin:bevel;"/>
                        <circle cx="1289" cy="631.1" r="42.8" style="fill:#d40f7d;stroke:#fff;stroke-width:8.3px;"/>
                        <circle cx="1592.3" cy="503.9" r="42.8" style="fill:#d40f7d;stroke:#fff;stroke-width:8.3px;"/>
                    </g>
                    <g id="Layer61" serif:id="Layer6">
                        <g id="Gear-icon.png2" serif:id="Gear-icon.png">
                            <path d="M983.2,417.3c2.1,2.1 2,2.1 4.1,4.1c12.3,11.8 12.6,12 12.2,13.4c-0.2,0.9 -11.7,17.6 -11.5,18.9c0.2,1.4 1.6,0.9 6.8,16.5c0.6,1.9 8.2,2.6 19.8,5.4c3.4,0.8 2.6,2.1 2.6,13.7c0,13.8 0.5,14.8 -2,15.4c-14.6,3.4 -19.9,4.2 -20.3,5.2c-0.6,1.9 -1.4,6.2 -6.6,15.9c-0.8,1.4 -0.2,1.6 7.1,13.2c4,6.3 4.5,6.8 2.9,8.6c-0.1,0.1 -0.1,0.1 -1.8,1.8c-5.5,5.4 -5.4,5.4 -10.9,10.9l-1.8,1.8c-2.9,2.9 -3.2,4.3 -6.8,2c-5.6,-3.6 -5.6,-3.5 -11.2,-7.1c-5.1,-3.2 -5.4,-3 -7,-2.2c-12.5,6.7 -15,4 -16,8.4c-4.2,19 -4.2,19.6 -5.8,19.8c-0.6,0.1 -20.8,-0 -24.3,0.1c-3.3,0.1 -2.7,-1.2 -3.4,-4.5c-3.8,-16.8 -3.6,-17.3 -4.8,-17.7c-8.3,-2.7 -8.2,-2.7 -15.9,-6.6c-1.7,-0.9 -3,1 -18.2,10.4c-2.5,1.5 -3.5,-0.4 -5.6,-2.5l-1.8,-1.8c-0.5,-0.4 -0.9,-0.9 -1.4,-1.3c-2.8,-2.8 -2.6,-2.8 -5.4,-5.5l-1.5,-1.6l-2.6,-2.6c-2.2,-2.4 -3.1,-2.1 -2.8,-4c0.3,-1.4 11.6,-17.5 11.2,-18.8c-1.3,-4.1 -2.7,-3.5 -6.8,-16.1c-0.8,-2.4 -1.6,-1.9 -19.1,-5.8c-4.5,-1 -3.4,-2.6 -3.4,-10.1c0,-17.6 -0.4,-18.4 1.6,-19c6.8,-1.8 20.3,-3.9 20.8,-5.3c2.9,-8.3 3,-8.2 6.7,-16.2c1.4,-2.8 -13.1,-18.4 -10.7,-20.9c4.4,-4.6 10.2,-10.4 11.1,-11.3c2.2,-2.2 2.2,-2.1 4.3,-4.3c2.7,-2.7 3.1,-3.3 6.3,-1.4c15.4,9.5 15.6,10.7 18.1,9.4c13.2,-7 15.3,-4.4 16,-7.5c3.8,-16.9 3.5,-21 6.7,-21.1c0.9,-0 23.6,-0 23.6,-0c3.2,0.1 2.5,1.6 5.9,16.4c0.6,2.6 0.8,5.7 2.3,6.2c7.7,2.5 7.8,2.3 15,6.1c2.1,1.1 2.4,0.5 13.6,-6.7c7,-4.5 7.5,-4.6 8.5,-3.5c0.1,0.1 0.1,0.1 1.8,1.8Zm-101.8,72.5c0.2,-3.8 0.1,-12.4 6.6,-22.6c4.9,-7.7 10.8,-11.7 11.9,-12.5c26.8,-18.5 61.3,-1.3 66.7,26.3c7.8,39.9 -35.1,63.7 -63.1,46.8c-21,-12.7 -21.8,-30 -22.1,-38Z" style="fill:#fff;"/>
                        </g>
                        <g id="Gear-icon.png3" serif:id="Gear-icon.png">
                            <path d="M983.2,417.3c2.1,2.1 2,2.1 4.1,4.1c12.3,11.8 12.6,12 12.2,13.4c-0.2,0.9 -11.7,17.6 -11.5,18.9c0.2,1.4 1.6,0.9 6.8,16.5c0.6,1.9 8.2,2.6 19.8,5.4c3.4,0.8 2.6,2.1 2.6,13.7c0,13.8 0.5,14.8 -2,15.4c-14.6,3.4 -19.9,4.2 -20.3,5.2c-0.6,1.9 -1.4,6.2 -6.6,15.9c-0.8,1.4 -0.2,1.6 7.1,13.2c4,6.3 4.5,6.8 2.9,8.6c-0.1,0.1 -0.1,0.1 -1.8,1.8c-5.5,5.4 -5.4,5.4 -10.9,10.9l-1.8,1.8c-2.9,2.9 -3.2,4.3 -6.8,2c-5.6,-3.6 -5.6,-3.5 -11.2,-7.1c-5.1,-3.2 -5.4,-3 -7,-2.2c-12.5,6.7 -15,4 -16,8.4c-4.2,19 -4.2,19.6 -5.8,19.8c-0.6,0.1 -20.8,-0 -24.3,0.1c-3.3,0.1 -2.7,-1.2 -3.4,-4.5c-3.8,-16.8 -3.6,-17.3 -4.8,-17.7c-8.3,-2.7 -8.2,-2.7 -15.9,-6.6c-1.7,-0.9 -3,1 -18.2,10.4c-2.5,1.5 -3.5,-0.4 -5.6,-2.5l-1.8,-1.8c-0.5,-0.4 -0.9,-0.9 -1.4,-1.3c-2.8,-2.8 -2.6,-2.8 -5.4,-5.5l-1.5,-1.6l-2.6,-2.6c-2.2,-2.4 -3.1,-2.1 -2.8,-4c0.3,-1.4 11.6,-17.5 11.2,-18.8c-1.3,-4.1 -2.7,-3.5 -6.8,-16.1c-0.8,-2.4 -1.6,-1.9 -19.1,-5.8c-4.5,-1 -3.4,-2.6 -3.4,-10.1c0,-17.6 -0.4,-18.4 1.6,-19c6.8,-1.8 20.3,-3.9 20.8,-5.3c2.9,-8.3 3,-8.2 6.7,-16.2c1.4,-2.8 -13.1,-18.4 -10.7,-20.9c4.4,-4.6 10.2,-10.4 11.1,-11.3c2.2,-2.2 2.2,-2.1 4.3,-4.3c2.7,-2.7 3.1,-3.3 6.3,-1.4c15.4,9.5 15.6,10.7 18.1,9.4c13.2,-7 15.3,-4.4 16,-7.5c3.8,-16.9 3.5,-21 6.7,-21.1c0.9,-0 23.6,-0 23.6,-0c3.2,0.1 2.5,1.6 5.9,16.4c0.6,2.6 0.8,5.7 2.3,6.2c7.7,2.5 7.8,2.3 15,6.1c2.1,1.1 2.4,0.5 13.6,-6.7c7,-4.5 7.5,-4.6 8.5,-3.5c0.1,0.1 0.1,0.1 1.8,1.8Zm-101.8,72.5c0.2,-3.8 0.1,-12.4 6.6,-22.6c4.9,-7.7 10.8,-11.7 11.9,-12.5c26.8,-18.5 61.3,-1.3 66.7,26.3c7.8,39.9 -35.1,63.7 -63.1,46.8c-21,-12.7 -21.8,-30 -22.1,-38Z" style="fill:#fff;"/>
                        </g>
                    </g>
                    <g id="Layer71" serif:id="Layer7">
                        <g>
                            <g>
                                <path d="M1804.3,101.6c-32.6,0 -59.1,26.5 -59.1,59.1c0,11.4 3.2,22.4 9.4,31.9c4.5,7 10.3,12.9 17.1,17.4c-2.4,2.5 -3.9,5.9 -3.9,9.6c0,3.7 1.4,7 3.8,9.5c-2.3,2.5 -3.8,5.8 -3.8,9.5c0,7.6 6.2,13.8 13.8,13.8l1.8,0l0,1.9c0,8.6 9,15.4 20.4,15.4l1,0c11.4,0 20.4,-6.8 20.4,-15.4l0,-1.9l1.8,0c7.6,0 13.8,-6.2 13.8,-13.8c0,-3.7 -1.4,-7 -3.8,-9.5c2.3,-2.5 3.8,-5.8 3.8,-9.5c0,-3.7 -1.5,-7.1 -3.9,-9.6c6.8,-4.5 12.7,-10.4 17.1,-17.4c6.1,-9.5 9.4,-20.6 9.4,-31.9c0,-32.6 -26.5,-59.1 -59.1,-59.1Zm12.3,152.6c0,3.2 -4.9,6.8 -11.8,6.8l-1,0c-7,0 -11.8,-3.6 -11.8,-6.8l0,-1.9l24.7,0l0,1.9l-0,0Zm10.4,-10.4l-45.5,0c-2.9,0 -5.2,-2.3 -5.2,-5.2c0,-2.9 2.3,-5.2 5.2,-5.2l45.5,0c2.9,0 5.2,2.3 5.2,5.2c0,2.9 -2.3,5.2 -5.2,5.2Zm0,-19l-45.5,0c-2.9,0 -5.2,-2.3 -5.2,-5.2c0,-2.9 2.3,-5.2 5.2,-5.2l45.5,0c2.9,0 5.2,2.3 5.2,5.2c0,2.9 -2.3,5.2 -5.2,5.2Zm-32.7,-49.7l19.9,0c-4.5,10.8 -7,24.3 -8,30.7l-3.9,0c-1,-6.5 -3.5,-19.9 -8,-30.7Zm32.7,30.7l-12.1,0c1.3,-7.9 4.5,-23.6 9.9,-32.8c0.8,-1.3 0.8,-3 0,-4.3c-0.8,-1.3 -2.2,-2.2 -3.7,-2.2l-33.7,0c-1.5,0 -3,0.8 -3.7,2.2c-0.8,1.3 -0.8,3 0,4.3c5.4,9.2 8.6,24.9 9.9,32.8l-12.1,0c-16.9,-8.5 -27.8,-26.1 -27.8,-45.1c0,-27.9 22.7,-50.5 50.5,-50.5c27.9,0 50.5,22.7 50.5,50.5c0,19 -10.9,36.6 -27.8,45.1Z" style="fill:#fae100;fill-rule:nonzero;"/>
                                <g>
                                    <g>
                                        <path d="M1804.3,89.1c-2.4,0 -4.3,-1.9 -4.3,-4.3l0,-18.4c0,-2.4 1.9,-4.3 4.3,-4.3c2.4,0 4.3,1.9 4.3,4.3l0,18.4c0,2.4 -1.9,4.3 -4.3,4.3Z" style="fill:#fae100;fill-rule:nonzero;"/>
                                    </g>
                                    <g>
                                        <g>
                                            <path d="M1749.5,111.8c-1.1,0 -2.2,-0.4 -3,-1.3l-13,-13c-1.7,-1.7 -1.7,-4.4 0,-6.1c1.7,-1.7 4.4,-1.7 6.1,0l13,13c1.7,1.7 1.7,4.4 0,6.1c-0.8,0.8 -1.9,1.3 -3,1.3Z" style="fill:#fae100;fill-rule:nonzero;"/>
                                        </g>
                                        <g>
                                            <path d="M1859.2,111.8c-1.1,0 -2.2,-0.4 -3,-1.3c-1.7,-1.7 -1.7,-4.4 0,-6.1l13,-13c1.7,-1.7 4.4,-1.7 6.1,0c1.7,1.7 1.7,4.4 0,6.1l-13,13c-0.8,0.8 -1.9,1.3 -3,1.3Z" style="fill:#fae100;fill-rule:nonzero;"/>
                                        </g>
                                    </g>
                                    <g>
                                        <g>
                                            <path d="M1727.3,162.3l-18.4,0c-2.4,0 -4.3,-1.9 -4.3,-4.3c0,-2.4 1.9,-4.3 4.3,-4.3l18.4,0c2.4,0 4.3,1.9 4.3,4.3c-0,2.4 -1.9,4.3 -4.3,4.3Z" style="fill:#fae100;fill-rule:nonzero;"/>
                                        </g>
                                        <g>
                                            <path d="M1899.7,162.3l-18.4,0c-2.4,0 -4.3,-1.9 -4.3,-4.3c0,-2.4 1.9,-4.3 4.3,-4.3l18.4,0c2.4,0 4.3,1.9 4.3,4.3c0,2.4 -1.9,4.3 -4.3,4.3Z" style="fill:#fae100;fill-rule:nonzero;"/>
                                        </g>
                                    </g>
                                </g>
                            </g>
                        </g>
                    </g>
                </g>
            </g>
        </g>
    </g>
</svg>
